<svg width="228" height="158" viewBox="0 0 228 158" fill="none" xmlns="http://www.w3.org/2000/svg">
<path d="M39 18.8873H50.8413L46.1429 0L69 29.1128H57.1587L61.8571 48L39 18.8873Z" fill="#878792" fill-opacity="0.2"/>
<g clip-path="url(#clip0_16410_91817)">
<path d="M213.812 97.3376L202.374 94.2728L211.801 77.2452L182.188 99.4501L193.625 102.515L184.199 119.542L213.812 97.3376Z" fill="#878792" fill-opacity="0.2"/>
</g>
<g opacity="0.2" clip-path="url(#clip1_16410_91817)">
<path d="M93.6119 134.13C99.2363 135.637 105.587 130.352 107.104 124.688L96.8784 121.947L86.6522 119.207C85.1345 124.872 87.9367 132.609 93.6119 134.13ZM133.066 109.607L139.965 83.8593C144.201 68.0506 139.362 52.5697 125.676 45.1498L126.615 41.6482C127.76 37.3742 125.259 33.0062 121.015 31.869C116.771 30.7319 112.421 33.2641 111.276 37.5381L110.337 41.0397C94.7245 40.6093 82.858 51.5586 78.6083 67.4188L71.7093 93.166L58.7236 100.725L57.3439 105.874L139.153 127.795L140.533 122.645L133.066 109.607Z" fill="#FC5600"/>
<path d="M93.6119 134.13C99.2363 135.637 105.587 130.352 107.104 124.688L96.8784 121.947L86.6522 119.207C85.1345 124.872 87.9367 132.609 93.6119 134.13ZM133.066 109.607L139.965 83.8593C144.201 68.0506 139.362 52.5697 125.676 45.1498L126.615 41.6482C127.76 37.3742 125.259 33.0062 121.015 31.869C116.771 30.7319 112.421 33.2641 111.276 37.5381L110.337 41.0397C94.7245 40.6093 82.858 51.5586 78.6083 67.4188L71.7093 93.166L58.7236 100.725L57.3439 105.874L139.153 127.795L140.533 122.645L133.066 109.607Z" fill="url(#paint0_linear_16410_91817)" fill-opacity="0.2"/>
</g>
<path d="M9 38.8873H20.8413L16.1429 20L39 49.1128H27.1587L31.8571 68L9 38.8873Z" fill="#878792" fill-opacity="0.2"/>
<g clip-path="url(#clip2_16410_91817)">
<path d="M213.812 97.3376L202.374 94.2728L211.801 77.2452L182.188 99.4501L193.625 102.515L184.199 119.542L213.812 97.3376Z" fill="#878792" fill-opacity="0.2"/>
</g>
<g clip-path="url(#clip3_16410_91817)">
<path d="M103.612 137.13C109.236 138.637 115.587 133.352 117.104 127.688L106.878 124.948L96.6522 122.208C95.1345 127.872 97.9367 135.609 103.612 137.13ZM143.066 112.607L149.965 86.8595C154.201 71.0508 149.362 55.57 135.676 48.1501L136.615 44.6484C137.76 40.3744 135.259 36.0064 131.015 34.8693C126.771 33.7321 122.421 36.2643 121.276 40.5383L120.337 44.0399C104.725 43.6095 92.858 54.5588 88.6083 70.419L81.7093 96.1663L68.7236 103.725L67.3439 108.874L149.153 130.795L150.533 125.646L143.066 112.607Z" fill="#FC5600"/>
<path d="M103.612 137.13C109.236 138.637 115.587 133.352 117.104 127.688L106.878 124.948L96.6522 122.208C95.1345 127.872 97.9367 135.609 103.612 137.13ZM143.066 112.607L149.965 86.8595C154.201 71.0508 149.362 55.57 135.676 48.1501L136.615 44.6484C137.76 40.3744 135.259 36.0064 131.015 34.8693C126.771 33.7321 122.421 36.2643 121.276 40.5383L120.337 44.0399C104.725 43.6095 92.858 54.5588 88.6083 70.419L81.7093 96.1663L68.7236 103.725L67.3439 108.874L149.153 130.795L150.533 125.646L143.066 112.607Z" fill="url(#paint1_linear_16410_91817)" fill-opacity="0.2"/>
</g>
<defs>
<linearGradient id="paint0_linear_16410_91817" x1="148.219" y1="93.96" x2="66.4098" y2="72.0394" gradientUnits="userSpaceOnUse">
<stop stop-color="#DB3900"/>
<stop offset="0.491487" stop-color="#DB3900"/>
<stop offset="1" stop-color="#FC5600" stop-opacity="0"/>
</linearGradient>
<linearGradient id="paint1_linear_16410_91817" x1="158.219" y1="96.9603" x2="76.4098" y2="75.0396" gradientUnits="userSpaceOnUse">
<stop stop-color="#DB3900"/>
<stop offset="0.491487" stop-color="#DB3900"/>
<stop offset="1" stop-color="#FC5600" stop-opacity="0"/>
</linearGradient>
<clipPath id="clip0_16410_91817">
<rect width="48" height="48" fill="white" transform="translate(181.029 69) rotate(15)"/>
</clipPath>
<clipPath id="clip1_16410_91817">
<rect width="116.456" height="116.456" fill="white" transform="translate(66.1411 11.6855) rotate(15)"/>
</clipPath>
<clipPath id="clip2_16410_91817">
<rect width="48" height="48" fill="white" transform="translate(181.029 69) rotate(15)"/>
</clipPath>
<clipPath id="clip3_16410_91817">
<rect width="116.456" height="116.456" fill="white" transform="translate(76.1411 14.6858) rotate(15)"/>
</clipPath>
</defs>
</svg>
