<svg width="209" height="181" viewBox="0 0 209 181" fill="none" xmlns="http://www.w3.org/2000/svg">
<path fill-rule="evenodd" clip-rule="evenodd" d="M78.7738 136.953C78.3688 137.354 77.7164 137.354 77.3114 136.953L43.5404 103.522C43.1295 103.115 43.1295 102.451 43.5404 102.044L77.3114 68.6133C77.7164 68.2123 78.3688 68.2123 78.7738 68.6133L87.3674 77.1203C87.7783 77.5271 87.7783 78.1909 87.3674 78.5977L63.6823 102.044C63.2715 102.451 63.2715 103.115 63.6823 103.522L87.3674 126.969C87.7783 127.375 87.7783 128.039 87.3674 128.446L78.7738 136.953ZM151.831 68.6133C152.236 68.2123 152.889 68.2123 153.294 68.6133L187.065 102.044C187.476 102.451 187.476 103.115 187.065 103.522L153.294 136.953C152.889 137.354 152.236 137.354 151.831 136.953L143.238 128.446C142.827 128.039 142.827 127.375 143.238 126.969L166.923 103.522C167.334 103.115 167.334 102.451 166.923 102.044L143.238 78.5977C142.827 78.1909 142.827 77.5271 143.238 77.1203L151.831 68.6133ZM118.359 45.7558C118.459 45.1921 118.996 44.8157 119.561 44.9142L131.539 47.005C132.106 47.104 132.484 47.6447 132.383 48.2112L112.962 157.245C112.862 157.808 112.325 158.185 111.76 158.086L99.7822 155.995C99.2153 155.896 98.8367 155.356 98.9376 154.789L118.359 45.7558Z" fill="#FFE2D3"/>
<path fill-rule="evenodd" clip-rule="evenodd" d="M79.6332 128.453C79.2282 128.854 78.5758 128.854 78.1707 128.453L44.3998 95.0218C43.9889 94.615 43.9889 93.9512 44.3998 93.5444L78.1707 60.1133C78.5758 59.7123 79.2282 59.7123 79.6332 60.1133L88.2268 68.6203C88.6376 69.0271 88.6376 69.6909 88.2268 70.0977L64.5417 93.5444C64.1308 93.9512 64.1308 94.615 64.5417 95.0218L88.2268 118.469C88.6376 118.875 88.6376 119.539 88.2268 119.946L79.6332 128.453ZM152.691 60.1133C153.096 59.7123 153.748 59.7123 154.153 60.1133L187.924 93.5444C188.335 93.9512 188.335 94.615 187.924 95.0218L154.153 128.453C153.748 128.854 153.096 128.854 152.691 128.453L144.097 119.946C143.686 119.539 143.686 118.875 144.097 118.469L167.782 95.0218C168.193 94.615 168.193 93.9512 167.782 93.5444L144.097 70.0977C143.686 69.6909 143.686 69.0271 144.097 68.6203L152.691 60.1133ZM119.218 37.2558C119.318 36.6921 119.856 36.3157 120.42 36.4142L132.398 38.505C132.965 38.604 133.344 39.1447 133.243 39.7112L113.822 148.745C113.721 149.308 113.184 149.685 112.62 149.586L100.642 147.495C100.075 147.396 99.6961 146.856 99.797 146.289L119.218 37.2558Z" fill="#FC5600"/>
<path d="M24 0L28.2045 16.8808C28.5621 18.3167 29.6833 19.4379 31.1192 19.7955L48 24L31.1192 28.2045C29.6833 28.5621 28.5621 29.6833 28.2045 31.1192L24 48L19.7955 31.1192C19.4379 29.6833 18.3167 28.5621 16.8808 28.2045L0 24L16.8808 19.7955C18.3167 19.4379 19.4379 18.3167 19.7955 16.8808L24 0Z" fill="#878792" fill-opacity="0.2"/>
<path d="M193 144L195.609 154.476C195.967 155.912 197.088 157.033 198.524 157.391L209 160L198.524 162.609C197.088 162.967 195.967 164.088 195.609 165.524L193 176L190.391 165.524C190.033 164.088 188.912 162.967 187.476 162.609L177 160L187.476 157.391C188.912 157.033 190.033 155.912 190.391 154.476L193 144Z" fill="#878792" fill-opacity="0.2"/>
</svg>
