<svg width="355" height="144" viewBox="0 0 355 144" fill="none" xmlns="http://www.w3.org/2000/svg">
<g opacity="0.2">
<rect y="54" width="294.915" height="90" rx="45" fill="#FC5600"/>
<rect y="54" width="294.915" height="90" rx="45" fill="url(#paint0_linear_16410_91814)" fill-opacity="0.2"/>
<path d="M69.3031 104.178C69.1232 104.736 68.9239 105.289 68.6954 105.832C68.7586 105.677 68.8266 105.522 68.8898 105.367C68.2481 106.886 67.4119 108.312 66.4007 109.618C66.5028 109.487 66.6049 109.356 66.707 109.225C65.7055 110.511 64.5436 111.666 63.2553 112.665C63.3866 112.563 63.5178 112.462 63.6491 112.36C62.3656 113.345 60.9606 114.165 59.473 114.801C59.6286 114.738 59.7841 114.67 59.9397 114.606C58.3597 115.271 56.7019 115.723 55.0053 115.951C55.1754 115.926 55.3504 115.902 55.5206 115.883C53.8482 116.101 52.1564 116.101 50.4889 115.883C50.659 115.907 50.834 115.931 51.0042 115.951C49.3075 115.723 47.6497 115.271 46.0697 114.606C46.2253 114.67 46.3809 114.738 46.5364 114.801C45.0439 114.165 43.6438 113.345 42.3604 112.36C42.4916 112.462 42.6229 112.563 42.7542 112.665C41.4658 111.666 40.3039 110.511 39.3025 109.225C39.4046 109.356 39.5066 109.487 39.6087 109.618C38.5975 108.312 37.7613 106.886 37.1196 105.367C37.1828 105.522 37.2509 105.677 37.3141 105.832C36.6626 104.28 36.2251 102.654 35.9966 100.989C36.0209 101.159 36.0452 101.334 36.0647 101.504C35.841 99.8197 35.841 98.1164 36.0647 96.4373C36.0404 96.6071 36.0161 96.7818 35.9966 96.9517C36.2251 95.2872 36.6626 93.6614 37.3092 92.1134C37.246 92.2687 37.178 92.424 37.1148 92.5792C37.7565 91.0554 38.5975 89.6287 39.6039 88.3184C39.5018 88.4494 39.3997 88.5805 39.2976 88.7115C40.2991 87.4255 41.461 86.2657 42.7542 85.2708C42.6229 85.3727 42.4916 85.4746 42.3604 85.5765C43.6438 84.5914 45.0488 83.7713 46.5364 83.1355C46.3809 83.1986 46.2253 83.2666 46.0697 83.3297C47.6497 82.6648 49.3075 82.2135 51.0042 81.9854C50.834 82.0097 50.659 82.0339 50.4889 82.0533C52.1612 81.835 53.8531 81.835 55.5206 82.0533C55.3504 82.0291 55.1754 82.0048 55.0053 81.9854C56.7019 82.2135 58.3597 82.6648 59.9397 83.3297C59.7841 83.2666 59.6286 83.1986 59.473 83.1355C60.9655 83.7713 62.3656 84.5914 63.6491 85.5765C63.5178 85.4746 63.3866 85.3727 63.2553 85.2708C64.5485 86.2705 65.7055 87.4255 66.7119 88.7115C66.6098 88.5805 66.5077 88.4494 66.4056 88.3184C67.4168 89.6287 68.253 91.0554 68.8995 92.5792C68.8363 92.424 68.7683 92.2687 68.7051 92.1134C69.3517 93.6566 69.7892 95.2823 70.0177 96.9371C69.9934 96.7673 69.9691 96.5926 69.9496 96.4227C70.1733 98.1164 70.1733 99.8343 69.9496 101.528C69.9739 101.358 69.9983 101.183 70.0177 101.014C69.8621 102.086 69.6288 103.144 69.3031 104.178C69.0016 105.148 69.6628 106.337 70.6594 106.565C71.7144 106.808 72.7256 106.25 73.0513 105.211C74.4125 100.853 74.3202 95.986 72.7013 91.7106C72.3075 90.6672 71.8456 89.6433 71.3012 88.6678C70.7518 87.6875 70.1003 86.7801 69.41 85.8968C68.0828 84.208 66.4736 82.7619 64.6992 81.5535C61.3447 79.2726 57.2659 78.0449 53.2113 78.0012C49.1665 77.9575 45.0731 79.1125 41.6749 81.306C39.8956 82.4561 38.2621 83.8683 36.9106 85.5037C36.1862 86.3821 35.5105 87.2993 34.9319 88.2796C34.3583 89.2453 33.8867 90.2596 33.4686 91.2981C31.7039 95.6414 31.5386 100.659 32.9241 105.124C34.1735 109.147 36.6335 112.801 39.9685 115.393C40.8484 116.077 41.7575 116.717 42.7298 117.261C43.6778 117.79 44.6745 118.232 45.6857 118.62C47.5865 119.343 49.6041 119.741 51.6362 119.886C55.6518 120.173 59.7598 119.222 63.2699 117.261C66.9549 115.208 70.0517 111.967 71.8748 108.172C72.3367 107.216 72.7304 106.226 73.0562 105.211C73.3673 104.246 72.6916 103.052 71.6998 102.824C70.6303 102.581 69.6385 103.144 69.3031 104.178Z" fill="white"/>
<path d="M54.3249 116.62C53.9165 116.154 53.5179 115.678 53.1387 115.188C53.2408 115.319 53.3429 115.45 53.445 115.581C51.933 113.621 50.6739 111.476 49.7064 109.195C49.7696 109.35 49.8377 109.506 49.9009 109.661C48.914 107.317 48.2431 104.852 47.8979 102.338C47.9222 102.508 47.9465 102.682 47.966 102.852C47.6208 100.285 47.6208 97.6791 47.966 95.1119C47.9417 95.2818 47.9174 95.4565 47.8979 95.6263C48.2431 93.1077 48.914 90.6424 49.896 88.2936C49.8328 88.4489 49.7648 88.6042 49.7016 88.7595C50.669 86.4786 51.9233 84.3288 53.4401 82.3634C53.338 82.4944 53.2359 82.6255 53.1338 82.7565C53.513 82.2663 53.9117 81.7859 54.32 81.32C54.6652 80.9318 54.8888 80.4805 54.8888 79.9467C54.8888 79.4711 54.6749 78.9033 54.32 78.5733C53.9506 78.2336 53.4644 77.9813 52.9442 78.0055C52.4483 78.0298 51.9087 78.1899 51.5684 78.5733C47.8639 82.7808 45.2824 87.9491 44.315 93.4765C44.0281 95.1216 43.8483 96.791 43.8191 98.4604C43.7899 100.106 43.9212 101.736 44.1448 103.362C44.5337 106.167 45.3408 108.855 46.4686 111.447C47.7278 114.339 49.4828 116.994 51.5635 119.362C51.8795 119.721 52.4726 119.93 52.9394 119.93C53.4158 119.93 53.9846 119.716 54.3152 119.362C54.6555 118.993 54.9083 118.508 54.884 117.988C54.8694 117.459 54.6798 117.023 54.3249 116.62Z" fill="white"/>
<path d="M34.8186 95.2145C35.1443 95.2145 35.4651 95.2145 35.7909 95.2145C36.6708 95.2145 37.5556 95.2145 38.4355 95.2145C39.7384 95.2145 41.0413 95.2145 42.3442 95.2145C43.9339 95.2145 45.5237 95.2145 47.1183 95.2145C48.8587 95.2145 50.604 95.2145 52.3444 95.2145C54.1043 95.2145 55.8642 95.2145 57.6241 95.2145C59.2624 95.2145 60.9056 95.2145 62.5439 95.2145C63.9295 95.2145 65.3199 95.2145 66.7054 95.2145C67.702 95.2145 68.7035 95.2145 69.7001 95.2145C70.1717 95.2145 70.6481 95.2194 71.1197 95.2145C71.1392 95.2145 71.1635 95.2145 71.1829 95.2145C72.199 95.2145 73.1761 94.3216 73.1275 93.2734C73.0789 92.2203 72.2719 91.3322 71.1829 91.3322C70.8572 91.3322 70.5363 91.3322 70.2106 91.3322C69.3307 91.3322 68.4459 91.3322 67.5659 91.3322C66.263 91.3322 64.9601 91.3322 63.6572 91.3322C62.0675 91.3322 60.4778 91.3322 58.8832 91.3322C57.1428 91.3322 55.3975 91.3322 53.657 91.3322C51.8972 91.3322 50.1373 91.3322 48.3774 91.3322C46.7391 91.3322 45.0959 91.3322 43.4575 91.3322C42.072 91.3322 40.6816 91.3322 39.296 91.3322C38.2994 91.3322 37.2979 91.3322 36.3013 91.3322C35.8298 91.3322 35.3533 91.3274 34.8818 91.3322C34.8623 91.3322 34.838 91.3322 34.8186 91.3322C33.8025 91.3322 32.8253 92.2252 32.8739 93.2734C32.9225 94.3265 33.7296 95.2145 34.8186 95.2145Z" fill="white"/>
<path d="M71.1829 102.785C70.8572 102.785 70.5363 102.785 70.2106 102.785C69.3307 102.785 68.4459 102.785 67.5659 102.785C66.263 102.785 64.9601 102.785 63.6572 102.785C62.0675 102.785 60.4778 102.785 58.8832 102.785C57.1428 102.785 55.3975 102.785 53.657 102.785C51.8972 102.785 50.1373 102.785 48.3774 102.785C46.7391 102.785 45.0959 102.785 43.4575 102.785C42.072 102.785 40.6816 102.785 39.296 102.785C38.2994 102.785 37.2979 102.785 36.3013 102.785C35.8298 102.785 35.3533 102.78 34.8818 102.785C34.8623 102.785 34.838 102.785 34.8186 102.785C33.8025 102.785 32.8253 103.678 32.8739 104.726C32.9225 105.779 33.7296 106.667 34.8186 106.667C35.1443 106.667 35.4651 106.667 35.7909 106.667C36.6708 106.667 37.5556 106.667 38.4355 106.667C39.7384 106.667 41.0413 106.667 42.3442 106.667C43.9339 106.667 45.5237 106.667 47.1183 106.667C48.8587 106.667 50.604 106.667 52.3444 106.667C54.1043 106.667 55.8642 106.667 57.6241 106.667C59.2624 106.667 60.9056 106.667 62.5439 106.667C63.9295 106.667 65.3199 106.667 66.7054 106.667C67.702 106.667 68.7035 106.667 69.7001 106.667C70.1717 106.667 70.6481 106.672 71.1197 106.667C71.1392 106.667 71.1635 106.667 71.1829 106.667C72.199 106.667 73.1761 105.774 73.1275 104.726C73.0789 103.673 72.2719 102.785 71.1829 102.785Z" fill="white"/>
<path d="M51.6802 81.3209C52.0885 81.7867 52.4872 82.2672 52.8664 82.7573C52.7643 82.6263 52.6622 82.4953 52.5601 82.3642C54.0769 84.3248 55.3312 86.4746 56.2986 88.7603C56.2354 88.605 56.1674 88.4497 56.1042 88.2945C57.0911 90.6384 57.762 93.1037 58.1023 95.6272C58.078 95.4573 58.0537 95.2826 58.0342 95.1128C58.3745 97.6799 58.3745 100.286 58.0342 102.853C58.0585 102.683 58.0828 102.509 58.1023 102.339C57.7571 104.857 57.0862 107.318 56.0993 109.662C56.1625 109.506 56.2306 109.351 56.2938 109.196C55.3263 111.477 54.0721 113.622 52.5553 115.582C52.6573 115.451 52.7594 115.32 52.8615 115.189C52.4629 115.699 52.0545 116.199 51.6218 116.684C51.2767 117.072 51.053 117.528 51.053 118.057C51.053 118.533 51.2669 119.101 51.6218 119.431C51.9913 119.77 52.4775 120.023 52.9977 119.998C53.4935 119.974 54.0283 119.814 54.3735 119.431C58.112 115.233 60.7081 110.021 61.6804 104.479C61.9623 102.863 62.1422 101.227 62.1763 99.5871C62.2103 97.9129 62.0839 96.2532 61.8554 94.5935C61.4713 91.7837 60.6595 89.0952 59.5316 86.4989C58.2724 83.6017 56.5174 80.9472 54.4318 78.5741C54.1158 78.215 53.5227 78.0063 53.056 78.0063C52.5796 78.0063 52.0108 78.2199 51.6802 78.5741C51.3399 78.943 51.0871 79.4282 51.1114 79.9475C51.1357 80.4813 51.3253 80.9181 51.6802 81.3209Z" fill="white"/>
<path d="M92.0962 95.232H96.1562L99.2302 104.425L101.869 95.232H105.697L101.231 109.5H97.3742L94.0392 99.756L90.7622 109.5H86.8472L82.2942 95.232H86.3542L88.9932 104.396L92.0962 95.232ZM116.197 95.232H120.257L123.331 104.425L125.97 95.232H129.798L125.332 109.5H121.475L118.14 99.756L114.863 109.5H110.948L106.395 95.232H110.455L113.094 104.396L116.197 95.232ZM140.297 95.232H144.357L147.431 104.425L150.07 95.232H153.898L149.432 109.5H145.575L142.24 99.756L138.963 109.5H135.048L130.495 95.232H134.555L137.194 104.396L140.297 95.232ZM155.556 108.949C155.034 108.427 154.773 107.799 154.773 107.064C154.773 106.329 155.034 105.711 155.556 105.208C156.078 104.686 156.697 104.425 157.412 104.425C158.147 104.425 158.775 104.686 159.297 105.208C159.819 105.711 160.08 106.329 160.08 107.064C160.08 107.799 159.819 108.427 159.297 108.949C158.775 109.452 158.147 109.703 157.412 109.703C156.697 109.703 156.078 109.452 155.556 108.949Z" fill="white"/>
<path d="M177.583 88.504V106.919C177.583 107.866 177.621 108.727 177.699 109.5H174.016C173.919 109.017 173.871 108.466 173.871 107.847C173.542 108.446 173.02 108.93 172.305 109.297C171.609 109.664 170.797 109.848 169.869 109.848C167.839 109.848 166.166 109.142 164.852 107.731C163.556 106.3 162.909 104.502 162.909 102.337C162.909 100.23 163.547 98.4607 164.823 97.03C166.118 95.5993 167.761 94.884 169.753 94.884C171.802 94.884 173.146 95.4737 173.784 96.653V88.504H177.583ZM166.795 102.337C166.795 103.594 167.123 104.589 167.781 105.324C168.438 106.039 169.289 106.397 170.333 106.397C171.357 106.397 172.198 106.03 172.856 105.295C173.513 104.56 173.842 103.565 173.842 102.308C173.842 101.071 173.513 100.104 172.856 99.408C172.198 98.6927 171.357 98.335 170.333 98.335C169.308 98.335 168.457 98.6927 167.781 99.408C167.123 100.123 166.795 101.1 166.795 102.337ZM185.595 105.353C186.31 106.068 187.171 106.426 188.176 106.426C189.181 106.426 190.032 106.068 190.728 105.353C191.443 104.638 191.801 103.642 191.801 102.366C191.801 101.09 191.443 100.094 190.728 99.379C190.032 98.6637 189.181 98.306 188.176 98.306C187.171 98.306 186.31 98.6637 185.595 99.379C184.899 100.094 184.551 101.09 184.551 102.366C184.551 103.642 184.899 104.638 185.595 105.353ZM182.811 96.943C184.242 95.5123 186.03 94.797 188.176 94.797C190.322 94.797 192.101 95.5123 193.512 96.943C194.943 98.3737 195.658 100.181 195.658 102.366C195.658 104.551 194.943 106.358 193.512 107.789C192.101 109.22 190.322 109.935 188.176 109.935C186.03 109.935 184.242 109.22 182.811 107.789C181.4 106.358 180.694 104.551 180.694 102.366C180.694 100.181 181.4 98.3737 182.811 96.943ZM202.559 109.5H198.702V95.232H202.385V96.972C202.753 96.3147 203.333 95.7927 204.125 95.406C204.918 95.0193 205.73 94.826 206.561 94.826C208.63 94.826 210.041 95.6187 210.795 97.204C211.82 95.6187 213.328 94.826 215.319 94.826C216.769 94.826 217.987 95.2803 218.973 96.189C219.979 97.0977 220.481 98.451 220.481 100.249V109.5H216.74V101.032C216.74 100.22 216.528 99.5723 216.102 99.089C215.696 98.5863 215.068 98.335 214.217 98.335C213.425 98.335 212.787 98.6057 212.303 99.147C211.82 99.6883 211.578 100.355 211.578 101.148V109.5H207.75V101.032C207.75 100.22 207.538 99.5723 207.112 99.089C206.687 98.5863 206.059 98.335 205.227 98.335C204.415 98.335 203.768 98.6057 203.284 99.147C202.801 99.669 202.559 100.336 202.559 101.148V109.5ZM223.519 105.614C223.519 104.396 223.915 103.42 224.708 102.685C225.501 101.95 226.525 101.486 227.782 101.293L231.291 100.771C232.006 100.674 232.364 100.336 232.364 99.756C232.364 99.2147 232.151 98.77 231.726 98.422C231.32 98.074 230.73 97.9 229.957 97.9C229.145 97.9 228.497 98.1223 228.014 98.567C227.55 99.0117 227.289 99.5627 227.231 100.22L223.809 99.495C223.944 98.2577 224.553 97.1653 225.636 96.218C226.719 95.2707 228.149 94.797 229.928 94.797C232.055 94.797 233.621 95.3093 234.626 96.334C235.631 97.3393 236.134 98.6347 236.134 100.22V107.238C236.134 108.089 236.192 108.843 236.308 109.5H232.77C232.673 109.075 232.625 108.504 232.625 107.789C231.716 109.2 230.315 109.906 228.42 109.906C226.951 109.906 225.762 109.481 224.853 108.63C223.964 107.779 223.519 106.774 223.519 105.614ZM229.232 107.035C230.141 107.035 230.885 106.784 231.465 106.281C232.064 105.759 232.364 104.908 232.364 103.729V103.091L229.145 103.584C227.966 103.758 227.376 104.357 227.376 105.382C227.376 105.846 227.54 106.242 227.869 106.571C228.198 106.88 228.652 107.035 229.232 107.035ZM243.879 109.5H240.022V95.232H243.879V109.5ZM239.558 90.563C239.558 89.9057 239.79 89.345 240.254 88.881C240.718 88.3977 241.278 88.156 241.936 88.156C242.593 88.156 243.154 88.388 243.618 88.852C244.082 89.316 244.314 89.8863 244.314 90.563C244.314 91.201 244.082 91.752 243.618 92.216C243.154 92.68 242.593 92.912 241.936 92.912C241.278 92.912 240.718 92.68 240.254 92.216C239.79 91.752 239.558 91.201 239.558 90.563ZM251.865 101.293V109.5H248.008V95.232H251.749V97.001C252.155 96.305 252.735 95.7733 253.489 95.406C254.243 95.0387 255.036 94.855 255.867 94.855C257.549 94.855 258.825 95.3867 259.695 96.45C260.584 97.494 261.029 98.8473 261.029 100.51V109.5H257.172V101.177C257.172 100.326 256.95 99.64 256.505 99.118C256.08 98.596 255.422 98.335 254.533 98.335C253.721 98.335 253.073 98.6153 252.59 99.176C252.107 99.7367 251.865 100.442 251.865 101.293Z" fill="white" fill-opacity="0.75"/>
</g>
<rect x="8" y="43" width="294.915" height="90" rx="45" fill="#FC5600"/>
<rect x="8" y="43" width="294.915" height="90" rx="45" fill="url(#paint1_linear_16410_91814)" fill-opacity="0.2"/>
<path d="M77.3031 93.1776C77.1232 93.7357 76.9239 94.2889 76.6954 94.8325C76.7586 94.6772 76.8266 94.5219 76.8898 94.3666C76.2481 95.8855 75.4119 97.3123 74.4007 98.6177C74.5028 98.4867 74.6049 98.3557 74.707 98.2246C73.7055 99.5106 72.5436 100.666 71.2553 101.665C71.3866 101.563 71.5178 101.462 71.6491 101.36C70.3656 102.345 68.9606 103.165 67.473 103.801C67.6286 103.738 67.7841 103.67 67.9397 103.606C66.3597 104.271 64.7019 104.723 63.0053 104.951C63.1754 104.926 63.3504 104.902 63.5206 104.883C61.8482 105.101 60.1564 105.101 58.4889 104.883C58.659 104.907 58.834 104.931 59.0042 104.951C57.3075 104.723 55.6497 104.271 54.0697 103.606C54.2253 103.67 54.3809 103.738 54.5364 103.801C53.0439 103.165 51.6438 102.345 50.3604 101.36C50.4916 101.462 50.6229 101.563 50.7542 101.665C49.4658 100.666 48.3039 99.5106 47.3025 98.2246C47.4046 98.3557 47.5066 98.4867 47.6087 98.6177C46.5975 97.3123 45.7613 95.8855 45.1196 94.3666C45.1828 94.5219 45.2509 94.6772 45.3141 94.8325C44.6626 93.2795 44.2251 91.6538 43.9966 89.9893C44.0209 90.1591 44.0452 90.3338 44.0647 90.5037C43.841 88.8197 43.841 87.1164 44.0647 85.4373C44.0404 85.6071 44.0161 85.7818 43.9966 85.9517C44.2251 84.2872 44.6626 82.6614 45.3092 81.1134C45.246 81.2687 45.178 81.424 45.1148 81.5792C45.7565 80.0554 46.5975 78.6287 47.6039 77.3184C47.5018 77.4494 47.3997 77.5805 47.2976 77.7115C48.2991 76.4255 49.461 75.2657 50.7542 74.2708C50.6229 74.3727 50.4916 74.4746 50.3604 74.5765C51.6438 73.5914 53.0488 72.7713 54.5364 72.1355C54.3809 72.1986 54.2253 72.2666 54.0697 72.3297C55.6497 71.6648 57.3075 71.2135 59.0042 70.9854C58.834 71.0097 58.659 71.0339 58.4889 71.0533C60.1612 70.835 61.8531 70.835 63.5206 71.0533C63.3504 71.0291 63.1754 71.0048 63.0053 70.9854C64.7019 71.2135 66.3597 71.6648 67.9397 72.3297C67.7841 72.2666 67.6286 72.1986 67.473 72.1355C68.9655 72.7713 70.3656 73.5914 71.6491 74.5765C71.5178 74.4746 71.3866 74.3727 71.2553 74.2708C72.5485 75.2705 73.7055 76.4255 74.7119 77.7115C74.6098 77.5805 74.5077 77.4494 74.4056 77.3184C75.4168 78.6287 76.253 80.0554 76.8995 81.5792C76.8363 81.424 76.7683 81.2687 76.7051 81.1134C77.3517 82.6566 77.7892 84.2823 78.0177 85.9371C77.9934 85.7673 77.9691 85.5926 77.9496 85.4227C78.1733 87.1164 78.1733 88.8343 77.9496 90.528C77.9739 90.3581 77.9983 90.1834 78.0177 90.0136C77.8621 91.086 77.6288 92.144 77.3031 93.1776C77.0016 94.1482 77.6628 95.3372 78.6594 95.5653C79.7144 95.8079 80.7256 95.2498 81.0513 94.2113C82.4125 89.8534 82.3202 84.986 80.7013 80.7106C80.3075 79.6672 79.8456 78.6433 79.3012 77.6678C78.7518 76.6875 78.1003 75.7801 77.41 74.8968C76.0828 73.208 74.4736 71.7619 72.6992 70.5535C69.3447 68.2726 65.2659 67.0449 61.2113 67.0012C57.1665 66.9575 53.0731 68.1125 49.6749 70.306C47.8956 71.4561 46.2621 72.8683 44.9106 74.5037C44.1862 75.3821 43.5105 76.2993 42.9319 77.2796C42.3583 78.2453 41.8867 79.2596 41.4686 80.2981C39.7039 84.6414 39.5386 89.6593 40.9241 94.1239C42.1735 98.147 44.6335 101.801 47.9685 104.393C48.8484 105.077 49.7575 105.717 50.7298 106.261C51.6778 106.79 52.6745 107.232 53.6857 107.62C55.5865 108.343 57.6041 108.741 59.6362 108.886C63.6518 109.173 67.7598 108.222 71.2699 106.261C74.9549 104.208 78.0517 100.967 79.8748 97.1716C80.3367 96.2155 80.7304 95.2255 81.0562 94.2113C81.3673 93.2456 80.6916 92.0518 79.6998 91.8237C78.6303 91.581 77.6385 92.144 77.3031 93.1776Z" fill="white"/>
<path d="M62.3249 105.62C61.9165 105.154 61.5179 104.678 61.1387 104.188C61.2408 104.319 61.3429 104.45 61.445 104.581C59.933 102.621 58.6739 100.476 57.7064 98.195C57.7696 98.3503 57.8377 98.5056 57.9009 98.6609C56.914 96.3169 56.2431 93.8517 55.8979 91.3379C55.9222 91.5077 55.9465 91.6824 55.966 91.8523C55.6208 89.2851 55.6208 86.6791 55.966 84.1119C55.9417 84.2818 55.9174 84.4565 55.8979 84.6263C56.2431 82.1077 56.914 79.6424 57.896 77.2936C57.8328 77.4489 57.7648 77.6042 57.7016 77.7595C58.669 75.4786 59.9233 73.3288 61.4401 71.3634C61.338 71.4944 61.2359 71.6255 61.1338 71.7565C61.513 71.2663 61.9117 70.7859 62.32 70.32C62.6652 69.9318 62.8888 69.4805 62.8888 68.9467C62.8888 68.4711 62.6749 67.9033 62.32 67.5733C61.9506 67.2336 61.4644 66.9813 60.9442 67.0055C60.4483 67.0298 59.9087 67.1899 59.5684 67.5733C55.8639 71.7808 53.2824 76.9491 52.315 82.4765C52.0281 84.1216 51.8483 85.791 51.8191 87.4604C51.7899 89.1055 51.9212 90.7361 52.1448 92.3618C52.5337 95.1668 53.3408 97.8553 54.4686 100.447C55.7278 103.339 57.4828 105.994 59.5635 108.362C59.8795 108.721 60.4726 108.93 60.9394 108.93C61.4158 108.93 61.9846 108.716 62.3152 108.362C62.6555 107.993 62.9083 107.508 62.884 106.988C62.8694 106.459 62.6798 106.023 62.3249 105.62Z" fill="white"/>
<path d="M42.8186 84.2145C43.1443 84.2145 43.4651 84.2145 43.7909 84.2145C44.6708 84.2145 45.5556 84.2145 46.4355 84.2145C47.7384 84.2145 49.0413 84.2145 50.3442 84.2145C51.9339 84.2145 53.5237 84.2145 55.1183 84.2145C56.8587 84.2145 58.604 84.2145 60.3444 84.2145C62.1043 84.2145 63.8642 84.2145 65.6241 84.2145C67.2624 84.2145 68.9056 84.2145 70.5439 84.2145C71.9295 84.2145 73.3199 84.2145 74.7054 84.2145C75.702 84.2145 76.7035 84.2145 77.7001 84.2145C78.1717 84.2145 78.6481 84.2194 79.1197 84.2145C79.1392 84.2145 79.1635 84.2145 79.1829 84.2145C80.199 84.2145 81.1761 83.3216 81.1275 82.2734C81.0789 81.2203 80.2719 80.3322 79.1829 80.3322C78.8572 80.3322 78.5363 80.3322 78.2106 80.3322C77.3307 80.3322 76.4459 80.3322 75.5659 80.3322C74.263 80.3322 72.9601 80.3322 71.6572 80.3322C70.0675 80.3322 68.4778 80.3322 66.8832 80.3322C65.1428 80.3322 63.3975 80.3322 61.657 80.3322C59.8972 80.3322 58.1373 80.3322 56.3774 80.3322C54.7391 80.3322 53.0959 80.3322 51.4575 80.3322C50.072 80.3322 48.6816 80.3322 47.296 80.3322C46.2994 80.3322 45.2979 80.3322 44.3013 80.3322C43.8298 80.3322 43.3533 80.3274 42.8818 80.3322C42.8623 80.3322 42.838 80.3322 42.8186 80.3322C41.8025 80.3322 40.8253 81.2252 40.8739 82.2734C40.9225 83.3265 41.7296 84.2145 42.8186 84.2145Z" fill="white"/>
<path d="M79.1829 91.7849C78.8572 91.7849 78.5363 91.7849 78.2106 91.7849C77.3307 91.7849 76.4459 91.7849 75.5659 91.7849C74.263 91.7849 72.9601 91.7849 71.6572 91.7849C70.0675 91.7849 68.4778 91.7849 66.8832 91.7849C65.1428 91.7849 63.3975 91.7849 61.657 91.7849C59.8972 91.7849 58.1373 91.7849 56.3774 91.7849C54.7391 91.7849 53.0959 91.7849 51.4575 91.7849C50.072 91.7849 48.6816 91.7849 47.296 91.7849C46.2994 91.7849 45.2979 91.7849 44.3013 91.7849C43.8298 91.7849 43.3533 91.78 42.8818 91.7849C42.8623 91.7849 42.838 91.7849 42.8186 91.7849C41.8025 91.7849 40.8253 92.6778 40.8739 93.726C40.9225 94.7791 41.7296 95.6672 42.8186 95.6672C43.1443 95.6672 43.4651 95.6672 43.7909 95.6672C44.6708 95.6672 45.5556 95.6672 46.4355 95.6672C47.7384 95.6672 49.0413 95.6672 50.3442 95.6672C51.9339 95.6672 53.5237 95.6672 55.1183 95.6672C56.8587 95.6672 58.604 95.6672 60.3444 95.6672C62.1043 95.6672 63.8642 95.6672 65.6241 95.6672C67.2624 95.6672 68.9056 95.6672 70.5439 95.6672C71.9295 95.6672 73.3199 95.6672 74.7054 95.6672C75.702 95.6672 76.7035 95.6672 77.7001 95.6672C78.1717 95.6672 78.6481 95.672 79.1197 95.6672C79.1392 95.6672 79.1635 95.6672 79.1829 95.6672C80.199 95.6672 81.1761 94.7742 81.1275 93.726C81.0789 92.6729 80.2719 91.7849 79.1829 91.7849Z" fill="white"/>
<path d="M59.6802 70.3209C60.0885 70.7867 60.4872 71.2672 60.8664 71.7573C60.7643 71.6263 60.6622 71.4953 60.5601 71.3642C62.0769 73.3248 63.3312 75.4746 64.2986 77.7603C64.2354 77.605 64.1674 77.4497 64.1042 77.2945C65.0911 79.6384 65.762 82.1037 66.1023 84.6272C66.078 84.4573 66.0537 84.2826 66.0342 84.1128C66.3745 86.6799 66.3745 89.2859 66.0342 91.8531C66.0585 91.6832 66.0828 91.5085 66.1023 91.3387C65.7571 93.8573 65.0862 96.3177 64.0993 98.6617C64.1625 98.5064 64.2306 98.3511 64.2938 98.1958C63.3263 100.477 62.0721 102.622 60.5553 104.582C60.6573 104.451 60.7594 104.32 60.8615 104.189C60.4629 104.699 60.0545 105.199 59.6218 105.684C59.2767 106.072 59.053 106.528 59.053 107.057C59.053 107.533 59.2669 108.101 59.6218 108.431C59.9913 108.77 60.4775 109.023 60.9977 108.998C61.4935 108.974 62.0283 108.814 62.3735 108.431C66.112 104.233 68.7081 99.0208 69.6804 93.4788C69.9623 91.8628 70.1422 90.2274 70.1763 88.5871C70.2103 86.9129 70.0839 85.2532 69.8554 83.5935C69.4713 80.7837 68.6595 78.0952 67.5316 75.4989C66.2724 72.6017 64.5174 69.9472 62.4318 67.5741C62.1158 67.215 61.5227 67.0063 61.056 67.0063C60.5796 67.0063 60.0108 67.2199 59.6802 67.5741C59.3399 67.943 59.0871 68.4282 59.1114 68.9475C59.1357 69.4813 59.3253 69.9181 59.6802 70.3209Z" fill="white"/>
<path d="M100.096 84.232H104.156L107.23 93.425L109.869 84.232H113.697L109.231 98.5H105.374L102.039 88.756L98.7622 98.5H94.8472L90.2942 84.232H94.3542L96.9932 93.396L100.096 84.232ZM124.197 84.232H128.257L131.331 93.425L133.97 84.232H137.798L133.332 98.5H129.475L126.14 88.756L122.863 98.5H118.948L114.395 84.232H118.455L121.094 93.396L124.197 84.232ZM148.297 84.232H152.357L155.431 93.425L158.07 84.232H161.898L157.432 98.5H153.575L150.24 88.756L146.963 98.5H143.048L138.495 84.232H142.555L145.194 93.396L148.297 84.232ZM163.556 97.949C163.034 97.427 162.773 96.7987 162.773 96.064C162.773 95.3293 163.034 94.7107 163.556 94.208C164.078 93.686 164.697 93.425 165.412 93.425C166.147 93.425 166.775 93.686 167.297 94.208C167.819 94.7107 168.08 95.3293 168.08 96.064C168.08 96.7987 167.819 97.427 167.297 97.949C166.775 98.4517 166.147 98.703 165.412 98.703C164.697 98.703 164.078 98.4517 163.556 97.949Z" fill="white"/>
<path d="M185.583 77.504V95.919C185.583 96.8663 185.621 97.7267 185.699 98.5H182.016C181.919 98.0167 181.871 97.4657 181.871 96.847C181.542 97.4463 181.02 97.9297 180.305 98.297C179.609 98.6643 178.797 98.848 177.869 98.848C175.839 98.848 174.166 98.1423 172.852 96.731C171.556 95.3003 170.909 93.5023 170.909 91.337C170.909 89.2297 171.547 87.4607 172.823 86.03C174.118 84.5993 175.761 83.884 177.753 83.884C179.802 83.884 181.146 84.4737 181.784 85.653V77.504H185.583ZM174.795 91.337C174.795 92.5937 175.123 93.5893 175.781 94.324C176.438 95.0393 177.289 95.397 178.333 95.397C179.357 95.397 180.198 95.0297 180.856 94.295C181.513 93.5603 181.842 92.5647 181.842 91.308C181.842 90.0707 181.513 89.104 180.856 88.408C180.198 87.6927 179.357 87.335 178.333 87.335C177.308 87.335 176.457 87.6927 175.781 88.408C175.123 89.1233 174.795 90.0997 174.795 91.337ZM193.595 94.353C194.31 95.0683 195.171 95.426 196.176 95.426C197.181 95.426 198.032 95.0683 198.728 94.353C199.443 93.6377 199.801 92.642 199.801 91.366C199.801 90.09 199.443 89.0943 198.728 88.379C198.032 87.6637 197.181 87.306 196.176 87.306C195.171 87.306 194.31 87.6637 193.595 88.379C192.899 89.0943 192.551 90.09 192.551 91.366C192.551 92.642 192.899 93.6377 193.595 94.353ZM190.811 85.943C192.242 84.5123 194.03 83.797 196.176 83.797C198.322 83.797 200.101 84.5123 201.512 85.943C202.943 87.3737 203.658 89.1813 203.658 91.366C203.658 93.5507 202.943 95.3583 201.512 96.789C200.101 98.2197 198.322 98.935 196.176 98.935C194.03 98.935 192.242 98.2197 190.811 96.789C189.4 95.3583 188.694 93.5507 188.694 91.366C188.694 89.1813 189.4 87.3737 190.811 85.943ZM210.559 98.5H206.702V84.232H210.385V85.972C210.753 85.3147 211.333 84.7927 212.125 84.406C212.918 84.0193 213.73 83.826 214.561 83.826C216.63 83.826 218.041 84.6187 218.795 86.204C219.82 84.6187 221.328 83.826 223.319 83.826C224.769 83.826 225.987 84.2803 226.973 85.189C227.979 86.0977 228.481 87.451 228.481 89.249V98.5H224.74V90.032C224.74 89.22 224.528 88.5723 224.102 88.089C223.696 87.5863 223.068 87.335 222.217 87.335C221.425 87.335 220.787 87.6057 220.303 88.147C219.82 88.6883 219.578 89.3553 219.578 90.148V98.5H215.75V90.032C215.75 89.22 215.538 88.5723 215.112 88.089C214.687 87.5863 214.059 87.335 213.227 87.335C212.415 87.335 211.768 87.6057 211.284 88.147C210.801 88.669 210.559 89.336 210.559 90.148V98.5ZM231.519 94.614C231.519 93.396 231.915 92.4197 232.708 91.685C233.501 90.9503 234.525 90.4863 235.782 90.293L239.291 89.771C240.006 89.6743 240.364 89.336 240.364 88.756C240.364 88.2147 240.151 87.77 239.726 87.422C239.32 87.074 238.73 86.9 237.957 86.9C237.145 86.9 236.497 87.1223 236.014 87.567C235.55 88.0117 235.289 88.5627 235.231 89.22L231.809 88.495C231.944 87.2577 232.553 86.1653 233.636 85.218C234.719 84.2707 236.149 83.797 237.928 83.797C240.055 83.797 241.621 84.3093 242.626 85.334C243.631 86.3393 244.134 87.6347 244.134 89.22V96.238C244.134 97.0887 244.192 97.8427 244.308 98.5H240.77C240.673 98.0747 240.625 97.5043 240.625 96.789C239.716 98.2003 238.315 98.906 236.42 98.906C234.951 98.906 233.762 98.4807 232.853 97.63C231.964 96.7793 231.519 95.774 231.519 94.614ZM237.232 96.035C238.141 96.035 238.885 95.7837 239.465 95.281C240.064 94.759 240.364 93.9083 240.364 92.729V92.091L237.145 92.584C235.966 92.758 235.376 93.3573 235.376 94.382C235.376 94.846 235.54 95.2423 235.869 95.571C236.198 95.8803 236.652 96.035 237.232 96.035ZM251.879 98.5H248.022V84.232H251.879V98.5ZM247.558 79.563C247.558 78.9057 247.79 78.345 248.254 77.881C248.718 77.3977 249.278 77.156 249.936 77.156C250.593 77.156 251.154 77.388 251.618 77.852C252.082 78.316 252.314 78.8863 252.314 79.563C252.314 80.201 252.082 80.752 251.618 81.216C251.154 81.68 250.593 81.912 249.936 81.912C249.278 81.912 248.718 81.68 248.254 81.216C247.79 80.752 247.558 80.201 247.558 79.563ZM259.865 90.293V98.5H256.008V84.232H259.749V86.001C260.155 85.305 260.735 84.7733 261.489 84.406C262.243 84.0387 263.036 83.855 263.867 83.855C265.549 83.855 266.825 84.3867 267.695 85.45C268.584 86.494 269.029 87.8473 269.029 89.51V98.5H265.172V90.177C265.172 89.3263 264.95 88.64 264.505 88.118C264.08 87.596 263.422 87.335 262.533 87.335C261.721 87.335 261.073 87.6153 260.59 88.176C260.107 88.7367 259.865 89.4423 259.865 90.293Z" fill="white" fill-opacity="0.75"/>
<path d="M311 0L315.205 16.8808C315.562 18.3167 316.683 19.4379 318.119 19.7955L335 24L318.119 28.2045C316.683 28.5621 315.562 29.6833 315.205 31.1192L311 48L306.796 31.1192C306.438 29.6833 305.317 28.5621 303.881 28.2045L287 24L303.881 19.7955C305.317 19.4379 306.438 18.3167 306.796 16.8808L311 0Z" fill="#878792" fill-opacity="0.2"/>
<path d="M339 46L341.609 56.4761C341.967 57.912 343.088 59.0331 344.524 59.3907L355 62L344.524 64.6093C343.088 64.9669 341.967 66.088 341.609 67.5239L339 78L336.391 67.5239C336.033 66.0881 334.912 64.9669 333.476 64.6093L323 62L333.476 59.3907C334.912 59.0331 336.033 57.912 336.391 56.4761L339 46Z" fill="#878792" fill-opacity="0.2"/>
<defs>
<linearGradient id="paint0_linear_16410_91814" x1="294.915" y1="99" x2="-2.05859e-06" y2="99" gradientUnits="userSpaceOnUse">
<stop stop-color="#DB3900"/>
<stop offset="0.491487" stop-color="#DB3900"/>
<stop offset="1" stop-color="#FC5600" stop-opacity="0"/>
</linearGradient>
<linearGradient id="paint1_linear_16410_91814" x1="302.915" y1="88" x2="8" y2="88" gradientUnits="userSpaceOnUse">
<stop stop-color="#DB3900"/>
<stop offset="0.491487" stop-color="#DB3900"/>
<stop offset="1" stop-color="#FC5600" stop-opacity="0"/>
</linearGradient>
</defs>
</svg>
