<svg width="467" height="197" viewBox="0 0 467 197" fill="none" xmlns="http://www.w3.org/2000/svg">
<g filter="url(#filter0_ddd_16410_91820)">
<path d="M53 64.1608C53 42.4755 70.5795 24.896 92.2648 24.896H185.441C207.127 24.896 224.706 42.4755 224.706 64.1608V64.1608C224.706 85.8462 207.127 103.426 185.441 103.426H92.2648C70.5795 103.426 53 85.8462 53 64.1608V64.1608Z" fill="white"/>
<path d="M88.5425 51.0725C88.3984 51.0725 88.3023 51.0725 88.2063 51.1205C82.8269 53.0381 79.2248 58.12 79.1765 63.8253C79.1765 71.2084 85.2284 77.2491 92.625 77.2491C98.3404 77.2491 103.432 73.6055 105.305 68.236C105.353 68.1401 105.353 68.0442 105.353 67.9004C105.353 67.373 104.921 66.9415 104.392 66.9415C104.296 66.9415 104.152 66.9415 104.056 66.9895C102.856 67.421 101.559 67.6127 100.262 67.6607C93.8736 67.6607 88.7346 62.5309 88.7346 56.1546C88.7346 54.8602 88.9747 53.6137 89.407 52.3672C89.455 52.2713 89.455 52.1754 89.455 52.0316C89.5031 51.5043 89.0708 51.1207 88.5425 51.0728V51.0725Z" fill="black"/>
<path d="M129.065 72.3016H132.913C134.908 72.3016 136.547 71.6704 137.829 70.4081C139.132 69.1255 139.784 67.2829 139.784 64.8805C139.784 62.4577 139.143 60.605 137.86 59.3224C136.577 58.0194 134.938 57.3678 132.943 57.3678H129.065V72.3016ZM133.035 75.6609H125.4V54.0085H133.065C136.119 54.0085 138.634 54.9756 140.609 56.9098C142.604 58.8439 143.601 61.5008 143.601 64.8805C143.601 68.2398 142.604 70.8764 140.609 72.7902C138.613 74.704 136.089 75.6609 133.035 75.6609ZM146.218 71.6297C146.218 70.3674 146.625 69.3596 147.44 68.6063C148.274 67.8326 149.364 67.344 150.707 67.1404L154.525 66.5602C155.258 66.4584 155.624 66.1021 155.624 65.4913C155.624 64.8194 155.39 64.2799 154.922 63.8727C154.453 63.4452 153.751 63.2314 152.814 63.2314C151.919 63.2314 151.206 63.4859 150.677 63.9949C150.147 64.4835 149.842 65.1248 149.761 65.9189L146.523 65.1859C146.666 63.8422 147.307 62.702 148.447 61.7655C149.588 60.8086 151.033 60.3302 152.784 60.3302C154.942 60.3302 156.53 60.8493 157.548 61.8877C158.586 62.926 159.106 64.2595 159.106 65.8883V73.2788C159.106 74.2561 159.167 75.0501 159.289 75.6609H155.991C155.889 75.3555 155.838 74.7244 155.838 73.7675C154.861 75.3351 153.334 76.119 151.257 76.119C149.75 76.119 148.529 75.6812 147.592 74.8058C146.676 73.91 146.218 72.8513 146.218 71.6297ZM151.929 73.3399C153.028 73.3399 153.914 73.0447 154.586 72.4543C155.278 71.8435 155.624 70.856 155.624 69.4919V68.8201L151.746 69.4003C150.422 69.6243 149.761 70.2962 149.761 71.4159C149.761 71.9453 149.954 72.4034 150.341 72.7902C150.728 73.1567 151.257 73.3399 151.929 73.3399ZM172.092 60.6966V64.3003C171.685 64.2392 171.298 64.2086 170.931 64.2086C168.264 64.2086 166.931 65.6644 166.931 68.5758V75.6609H163.388V60.7882H166.839V63.1703C167.185 62.3763 167.745 61.7553 168.519 61.3074C169.292 60.8391 170.168 60.605 171.145 60.605C171.471 60.605 171.786 60.6356 172.092 60.6966ZM188.975 60.7882L182.867 67.0793L189.097 75.6609H184.761L180.393 69.5836L178.561 71.5075V75.6609H175.049V53.5504H178.561V66.8045L184.272 60.7882H188.975Z" fill="#222222"/>
</g>
<g filter="url(#filter1_ddd_16410_91820)">
<path d="M237.794 64.1608C237.794 42.4755 255.374 24.896 277.059 24.896H375.236C396.921 24.896 414.501 42.4755 414.501 64.1608V64.1608C414.501 85.8462 396.921 103.426 375.236 103.426H277.059C255.374 103.426 237.794 85.8462 237.794 64.1608V64.1608Z" fill="white"/>
<path d="M292.182 65.8079H290.479C289.87 65.8079 289.308 65.4834 289.004 64.9564C288.699 64.4294 288.699 63.7798 289.004 63.2529C289.308 62.7259 289.87 62.4014 290.479 62.4014H292.182C292.791 62.4014 293.353 62.7259 293.657 63.2529C293.962 63.7798 293.962 64.4294 293.657 64.9564C293.353 65.4834 292.791 65.8079 292.182 65.8079Z" fill="black"/>
<path d="M263.225 65.8079H261.522C260.913 65.8079 260.351 65.4834 260.046 64.9564C259.742 64.4294 259.742 63.7798 260.046 63.2529C260.351 62.7259 260.913 62.4014 261.522 62.4014H263.225C263.833 62.4014 264.396 62.7259 264.7 63.2529C265.004 63.7798 265.004 64.4294 264.7 64.9564C264.396 65.4834 263.833 65.8079 263.225 65.8079Z" fill="black"/>
<path d="M286.493 56.1676C286.07 56.1485 285.669 55.9723 285.369 55.6737C285.052 55.3547 284.874 54.9229 284.874 54.473C284.874 54.023 285.052 53.5912 285.369 53.2722L286.578 52.0628C286.887 51.7021 287.332 51.4868 287.806 51.4685C288.281 51.4503 288.741 51.6305 289.077 51.9662C289.412 52.3018 289.593 52.762 289.574 53.2362C289.556 53.7107 289.34 54.1556 288.98 54.4644L287.771 55.6737C287.433 56.0099 286.969 56.189 286.493 56.1676L286.493 56.1676Z" fill="black"/>
<path d="M266.019 76.6412C265.566 76.6438 265.131 76.4661 264.809 76.147C264.492 75.8279 264.314 75.3962 264.314 74.9462C264.314 74.4963 264.492 74.0645 264.809 73.7454L266.019 72.6214C266.457 72.2458 267.056 72.1178 267.61 72.2817C268.163 72.4454 268.596 72.8783 268.76 73.4321C268.924 73.9856 268.796 74.5844 268.42 75.023L267.211 76.2323C266.88 76.5161 266.454 76.6624 266.019 76.6413L266.019 76.6412Z" fill="black"/>
<path d="M276.852 52.1817C276.4 52.1817 275.967 52.002 275.647 51.6826C275.328 51.3633 275.149 50.9301 275.149 50.4781V48.7749C275.149 48.1663 275.473 47.604 276 47.2997C276.527 46.9955 277.177 46.9955 277.704 47.2997C278.231 47.604 278.555 48.1663 278.555 48.7749V50.4781C278.555 50.9301 278.376 51.3633 278.056 51.6826C277.737 52.002 277.304 52.1817 276.852 52.1817Z" fill="black"/>
<path d="M276.852 81.1384C276.4 81.1384 275.967 80.9591 275.647 80.6397C275.328 80.3203 275.149 79.8869 275.149 79.4352V77.7319C275.149 77.1234 275.473 76.561 276 76.2568C276.527 75.9525 277.177 75.9525 277.704 76.2568C278.231 76.561 278.555 77.1234 278.555 77.7319V79.4352C278.555 79.8869 278.376 80.3203 278.056 80.6397C277.737 80.9591 277.304 81.1384 276.852 81.1384Z" fill="black"/>
<path d="M267.211 56.1673C266.764 56.1656 266.335 55.9882 266.018 55.6734L264.809 54.464C264.433 54.0255 264.305 53.4266 264.469 52.8731C264.633 52.3193 265.066 51.8864 265.62 51.7225C266.173 51.5588 266.772 51.6868 267.211 52.0624L268.42 53.2717C268.737 53.5908 268.915 54.0225 268.915 54.4725C268.915 54.9225 268.737 55.3542 268.42 55.6733C268.099 55.9921 267.663 56.1698 267.211 56.1672L267.211 56.1673Z" fill="black"/>
<path d="M287.685 76.6415C287.239 76.6395 286.811 76.4621 286.493 76.1473L285.369 74.938C285.127 74.5037 285.088 73.9852 285.26 73.519C285.433 73.0527 285.8 72.6851 286.266 72.5126C286.733 72.3401 287.251 72.3798 287.685 72.6216L288.895 73.8309C289.212 74.15 289.39 74.5817 289.39 75.0317C289.39 75.4817 289.212 75.9134 288.895 76.2325C288.56 76.5205 288.126 76.6671 287.685 76.6414L287.685 76.6415Z" fill="black"/>
<ellipse cx="276.852" cy="63.7433" rx="8.51669" ry="8.51669" fill="black"/>
<path d="M323.784 75.6609H310.194V54.0085H313.859V72.1794H323.784V75.6609ZM330.341 75.6609H326.829V60.7882H330.341V75.6609ZM326.951 57.1846C326.503 56.7367 326.279 56.1972 326.279 55.566C326.279 54.9349 326.503 54.3954 326.951 53.9474C327.399 53.4792 327.938 53.245 328.57 53.245C329.221 53.245 329.771 53.469 330.219 53.9169C330.667 54.3648 330.891 54.9145 330.891 55.566C330.891 56.1972 330.667 56.7367 330.219 57.1846C329.771 57.6325 329.221 57.8565 328.57 57.8565C327.938 57.8565 327.399 57.6325 326.951 57.1846ZM333.842 76.4854L337.11 75.6303C337.232 76.5669 337.629 77.3304 338.301 77.9208C338.993 78.5316 339.838 78.837 340.836 78.837C343.645 78.837 345.05 77.3507 345.05 74.3782V72.8207C344.704 73.4519 344.154 73.971 343.401 74.3782C342.648 74.7854 341.762 74.989 340.744 74.989C338.749 74.989 337.1 74.307 335.797 72.9429C334.514 71.5788 333.873 69.8482 333.873 67.7512C333.873 65.7356 334.514 64.0254 335.797 62.6206C337.079 61.2158 338.728 60.5134 340.744 60.5134C342.922 60.5134 344.388 61.2362 345.142 62.6817V60.7882H348.562V74.2561C348.562 76.4549 347.941 78.2771 346.699 79.7226C345.457 81.1885 343.533 81.9214 340.927 81.9214C339.013 81.9214 337.405 81.4023 336.102 80.3639C334.799 79.3256 334.046 78.0328 333.842 76.4854ZM341.324 71.9656C342.464 71.9656 343.381 71.589 344.073 70.8357C344.785 70.062 345.142 69.0339 345.142 67.7512C345.142 66.4889 344.785 65.4811 344.073 64.7278C343.36 63.9542 342.444 63.5673 341.324 63.5673C340.184 63.5673 339.248 63.9542 338.515 64.7278C337.802 65.4811 337.446 66.4889 337.446 67.7512C337.446 69.0339 337.802 70.062 338.515 70.8357C339.227 71.589 340.164 71.9656 341.324 71.9656ZM356.437 66.9266V75.6609H352.895V53.5504H356.437V62.2236C357.394 60.9817 358.809 60.3607 360.682 60.3607C362.433 60.3607 363.777 60.9104 364.713 62.0098C365.65 63.1092 366.118 64.5242 366.118 66.2548V75.6609H362.576V66.8656C362.576 65.868 362.331 65.0739 361.843 64.4835C361.354 63.8727 360.58 63.5673 359.522 63.5673C358.585 63.5673 357.842 63.8829 357.292 64.514C356.763 65.1452 356.478 65.9494 356.437 66.9266ZM374.92 56.2379V60.7882H378.005V63.9338H374.92V70.8357C374.92 71.4872 375.073 71.9656 375.378 72.271C375.684 72.5561 376.162 72.6986 376.814 72.6986C377.221 72.6986 377.628 72.6579 378.035 72.5764V75.5082C377.506 75.7321 376.783 75.8441 375.867 75.8441C374.482 75.8441 373.393 75.4573 372.599 74.6836C371.805 73.8896 371.408 72.8004 371.408 71.4159V63.9338H368.66V60.7882H369.423C370.176 60.7882 370.746 60.5745 371.133 60.1469C371.52 59.7194 371.713 59.1595 371.713 58.4673V56.2379H374.92Z" fill="#222222"/>
</g>
<circle cx="48.1071" cy="166.164" r="30.1071" fill="#FB5601"/>
<circle cx="124.78" cy="166.164" r="30.1071" fill="#FFBF67"/>
<circle cx="201.452" cy="166.164" r="30.1071" fill="#4EEC92"/>
<circle cx="278.125" cy="166.164" r="30.1071" fill="#6766FF"/>
<circle cx="348.375" cy="166.164" r="30.1071" fill="#F85FC9"/>
<circle cx="418.625" cy="166.164" r="30.1071" fill="#0066FF"/>
<defs>
<filter id="filter0_ddd_16410_91820" x="0.646912" y="0.900829" width="276.412" height="183.236" filterUnits="userSpaceOnUse" color-interpolation-filters="sRGB">
<feFlood flood-opacity="0" result="BackgroundImageFix"/>
<feColorMatrix in="SourceAlpha" type="matrix" values="0 0 0 0 0 0 0 0 0 0 0 0 0 0 0 0 0 0 127 0" result="hardAlpha"/>
<feOffset/>
<feGaussianBlur stdDeviation="1.09069"/>
<feColorMatrix type="matrix" values="0 0 0 0 0 0 0 0 0 0 0 0 0 0 0 0 0 0 0.04 0"/>
<feBlend mode="normal" in2="BackgroundImageFix" result="effect1_dropShadow_16410_91820"/>
<feColorMatrix in="SourceAlpha" type="matrix" values="0 0 0 0 0 0 0 0 0 0 0 0 0 0 0 0 0 0 127 0" result="hardAlpha"/>
<feOffset dy="4.36276"/>
<feGaussianBlur stdDeviation="6.54414"/>
<feColorMatrix type="matrix" values="0 0 0 0 0 0 0 0 0 0 0 0 0 0 0 0 0 0 0.04 0"/>
<feBlend mode="normal" in2="effect1_dropShadow_16410_91820" result="effect2_dropShadow_16410_91820"/>
<feColorMatrix in="SourceAlpha" type="matrix" values="0 0 0 0 0 0 0 0 0 0 0 0 0 0 0 0 0 0 127 0" result="hardAlpha"/>
<feOffset dy="28.3579"/>
<feGaussianBlur stdDeviation="26.1765"/>
<feColorMatrix type="matrix" values="0 0 0 0 0 0 0 0 0 0 0 0 0 0 0 0 0 0 0.06 0"/>
<feBlend mode="normal" in2="effect2_dropShadow_16410_91820" result="effect3_dropShadow_16410_91820"/>
<feBlend mode="normal" in="SourceGraphic" in2="effect3_dropShadow_16410_91820" result="shape"/>
</filter>
<filter id="filter1_ddd_16410_91820" x="185.441" y="0.900829" width="281.412" height="183.236" filterUnits="userSpaceOnUse" color-interpolation-filters="sRGB">
<feFlood flood-opacity="0" result="BackgroundImageFix"/>
<feColorMatrix in="SourceAlpha" type="matrix" values="0 0 0 0 0 0 0 0 0 0 0 0 0 0 0 0 0 0 127 0" result="hardAlpha"/>
<feOffset/>
<feGaussianBlur stdDeviation="1.09069"/>
<feColorMatrix type="matrix" values="0 0 0 0 0 0 0 0 0 0 0 0 0 0 0 0 0 0 0.04 0"/>
<feBlend mode="normal" in2="BackgroundImageFix" result="effect1_dropShadow_16410_91820"/>
<feColorMatrix in="SourceAlpha" type="matrix" values="0 0 0 0 0 0 0 0 0 0 0 0 0 0 0 0 0 0 127 0" result="hardAlpha"/>
<feOffset dy="4.36276"/>
<feGaussianBlur stdDeviation="6.54414"/>
<feColorMatrix type="matrix" values="0 0 0 0 0 0 0 0 0 0 0 0 0 0 0 0 0 0 0.04 0"/>
<feBlend mode="normal" in2="effect1_dropShadow_16410_91820" result="effect2_dropShadow_16410_91820"/>
<feColorMatrix in="SourceAlpha" type="matrix" values="0 0 0 0 0 0 0 0 0 0 0 0 0 0 0 0 0 0 127 0" result="hardAlpha"/>
<feOffset dy="28.3579"/>
<feGaussianBlur stdDeviation="26.1765"/>
<feColorMatrix type="matrix" values="0 0 0 0 0 0 0 0 0 0 0 0 0 0 0 0 0 0 0.06 0"/>
<feBlend mode="normal" in2="effect2_dropShadow_16410_91820" result="effect3_dropShadow_16410_91820"/>
<feBlend mode="normal" in="SourceGraphic" in2="effect3_dropShadow_16410_91820" result="shape"/>
</filter>
</defs>
</svg>
