<svg width="286" height="162" viewBox="0 0 286 162" fill="none" xmlns="http://www.w3.org/2000/svg">
<path d="M24 30L28.2045 46.8808C28.5621 48.3167 29.6833 49.4379 31.1192 49.7955L48 54L31.1192 58.2045C29.6833 58.5621 28.5621 59.6833 28.2045 61.1192L24 78L19.7955 61.1192C19.4379 59.6833 18.3167 58.5621 16.8808 58.2045L0 54L16.8808 49.7955C18.3167 49.4379 19.4379 48.3167 19.7955 46.8808L24 30Z" fill="#878792" fill-opacity="0.2"/>
<path d="M239 0L241.609 10.4761C241.967 11.912 243.088 13.0331 244.524 13.3907L255 16L244.524 18.6093C243.088 18.9669 241.967 20.088 241.609 21.5239L239 32L236.391 21.5239C236.033 20.0881 234.912 18.9669 233.476 18.6093L223 16L233.476 13.3907C234.912 13.0331 236.033 11.912 236.391 10.4761L239 0Z" fill="#878792" fill-opacity="0.2"/>
<path d="M270 102L272.609 112.476C272.967 113.912 274.088 115.033 275.524 115.391L286 118L275.524 120.609C274.088 120.967 272.967 122.088 272.609 123.524L270 134L267.391 123.524C267.033 122.088 265.912 120.967 264.476 120.609L254 118L264.476 115.391C265.912 115.033 267.033 113.912 267.391 112.476L270 102Z" fill="#878792" fill-opacity="0.2"/>
<g clip-path="url(#clip0_16410_91826)">
<path fill-rule="evenodd" clip-rule="evenodd" d="M95.0312 104.144C95.0312 96.7107 100.795 90.7648 107.915 90.7426V75.1496C107.915 56.7017 122.337 41.75 140.125 41.75C157.879 41.75 172.335 56.7017 172.335 75.1496V90.7426C179.46 90.7604 185.219 96.7553 185.219 104.144V148.598C185.219 156.045 179.434 162 172.296 162H107.954C100.812 162 95.0312 156 95.0312 148.598V104.144ZM120.799 75.1585V90.7426H159.451V75.1585C159.451 64.0861 150.776 55.1116 140.125 55.1116C129.453 55.1116 120.799 64.0595 120.799 75.1585ZM141.261 132.267C145.307 132.267 148.587 128.866 148.587 124.67C148.587 120.473 145.307 117.072 141.261 117.072C137.214 117.072 133.934 120.473 133.934 124.67C133.934 128.866 137.214 132.267 141.261 132.267Z" fill="#FFE2D3"/>
</g>
<g clip-path="url(#clip1_16410_91826)">
<path fill-rule="evenodd" clip-rule="evenodd" d="M104.781 94.3943C104.781 86.9607 110.545 81.0148 117.665 80.9926V65.3996C117.665 46.9517 132.087 32 149.875 32C167.629 32 182.085 46.9517 182.085 65.3996V80.9926C189.21 81.0104 194.969 87.0053 194.969 94.3943V138.848C194.969 146.295 189.184 152.25 182.046 152.25H117.704C110.562 152.25 104.781 146.25 104.781 138.848V94.3943ZM130.549 65.4085V80.9926H169.201V65.4085C169.201 54.3361 160.526 45.3616 149.875 45.3616C139.203 45.3616 130.549 54.3095 130.549 65.4085ZM151.011 122.517C155.057 122.517 158.337 119.116 158.337 114.92C158.337 110.723 155.057 107.322 151.011 107.322C146.964 107.322 143.684 110.723 143.684 114.92C143.684 119.116 146.964 122.517 151.011 122.517Z" fill="#FC5600"/>
<path fill-rule="evenodd" clip-rule="evenodd" d="M104.781 94.3943C104.781 86.9607 110.545 81.0148 117.665 80.9926V65.3996C117.665 46.9517 132.087 32 149.875 32C167.629 32 182.085 46.9517 182.085 65.3996V80.9926C189.21 81.0104 194.969 87.0053 194.969 94.3943V138.848C194.969 146.295 189.184 152.25 182.046 152.25H117.704C110.562 152.25 104.781 146.25 104.781 138.848V94.3943ZM130.549 65.4085V80.9926H169.201V65.4085C169.201 54.3361 160.526 45.3616 149.875 45.3616C139.203 45.3616 130.549 54.3095 130.549 65.4085ZM151.011 122.517C155.057 122.517 158.337 119.116 158.337 114.92C158.337 110.723 155.057 107.322 151.011 107.322C146.964 107.322 143.684 110.723 143.684 114.92C143.684 119.116 146.964 122.517 151.011 122.517Z" fill="url(#paint0_linear_16410_91826)" fill-opacity="0.2"/>
</g>
<defs>
<linearGradient id="paint0_linear_16410_91826" x1="194.969" y1="92.125" x2="104.781" y2="92.125" gradientUnits="userSpaceOnUse">
<stop stop-color="#DB3900"/>
<stop offset="0.491487" stop-color="#DB3900"/>
<stop offset="1" stop-color="#FC5600" stop-opacity="0"/>
</linearGradient>
<clipPath id="clip0_16410_91826">
<rect width="120.25" height="120.25" fill="white" transform="translate(80 41.75)"/>
</clipPath>
<clipPath id="clip1_16410_91826">
<rect width="120.25" height="120.25" fill="white" transform="translate(89.75 32)"/>
</clipPath>
</defs>
</svg>
