<svg width="762" height="333" viewBox="0 0 762 333" fill="none" xmlns="http://www.w3.org/2000/svg">
<path d="M16.6398 164.262L3.19748 182.195C1.12192 184.964 0 188.331 0 191.791V317C0 325.837 7.16344 333 16 333H620.5C629.337 333 636.5 325.837 636.5 317V233.055C636.5 228.619 634.658 224.381 631.413 221.355L624.054 214.49C623.474 213.95 622.935 213.366 622.442 212.746L572.252 149.601C571.347 148.463 570.291 147.453 569.113 146.599L531.331 119.231C522.812 113.06 510.757 116.648 507 126.474L473.528 214.016C472.021 217.957 469.018 221.143 465.173 222.881L430.28 238.654C428.707 239.365 427.028 239.817 425.309 239.992L391.486 243.433C388.766 243.71 386.02 243.285 383.511 242.199L351.415 228.307C349.011 227.267 346.898 225.652 345.264 223.604L316.484 187.54C315.911 186.821 315.401 186.055 314.959 185.249L309.319 174.958C304.544 166.245 293.066 163.945 285.303 170.145L256.139 193.436C249.113 199.047 238.844 197.769 233.409 190.607L208.576 157.886C207.97 157.087 207.29 156.347 206.545 155.676L174.053 126.379C168.57 121.435 160.417 120.884 154.32 125.045L98.4454 163.175L71.9007 179.187C65.0067 183.345 56.0965 181.733 51.0963 175.423L41.9826 163.921C35.4667 155.698 22.9327 155.867 16.6398 164.262Z" fill="url(#paint0_linear_16410_91819)" fill-opacity="0.2"/>
<path d="M1 185.964L17.1993 164.112C23.4564 155.672 36.0121 155.451 42.5624 163.666L51.6141 175.018C56.6114 181.285 65.475 182.887 72.3501 178.766L98.9454 162.824L154.863 124.903C160.943 120.78 169.05 121.327 174.521 126.229L207.041 155.368C207.789 156.038 208.471 156.776 209.08 157.573L233.93 190.112C239.364 197.227 249.579 198.499 256.592 192.933L285.853 169.71C293.606 163.557 305.03 165.849 309.81 174.517L315.454 184.751C315.899 185.558 316.413 186.325 316.99 187.043L345.759 222.868C347.397 224.908 349.51 226.515 351.912 227.548L384.03 241.362C386.527 242.436 389.257 242.856 391.962 242.583L425.823 239.159C427.533 238.986 429.203 238.539 430.77 237.835L465.665 222.16C469.515 220.431 472.526 217.25 474.041 213.311L507.499 126.357C511.264 116.57 523.269 112.991 531.779 119.117L569.61 146.349C570.79 147.199 571.849 148.205 572.757 149.341L622.938 212.081C623.434 212.7 623.975 213.282 624.557 213.821L637 225.355" stroke="#878792" stroke-opacity="0.3" stroke-width="2" stroke-linecap="round" stroke-linejoin="round"/>
<rect x="30" y="209" width="13" height="104" rx="6.5" fill="#FC5600"/>
<rect x="30" y="209" width="13" height="104" rx="6.5" fill="#D4F4E4"/>
<rect x="35" y="207" width="15" height="106" rx="7.5" fill="#FC5600"/>
<rect x="35" y="207" width="15" height="106" rx="7.5" fill="#40D02A"/>
<rect x="99" y="209" width="13" height="104" rx="6.5" fill="#FC5600"/>
<rect x="99" y="209" width="13" height="104" rx="6.5" fill="#D4F4E4"/>
<rect x="105" y="207" width="15" height="106" rx="7.5" fill="#FC5600"/>
<rect x="105" y="207" width="15" height="106" rx="7.5" fill="#40D02A"/>
<rect x="169" y="192" width="13" height="121" rx="6.5" fill="#FC5600"/>
<rect x="169" y="192" width="13" height="121" rx="6.5" fill="#D4F4E4"/>
<rect x="175" y="189" width="15" height="124" rx="7.5" fill="#FC5600"/>
<rect x="175" y="189" width="15" height="124" rx="7.5" fill="#40D02A"/>
<rect x="239" y="242" width="13" height="71" rx="6.5" fill="#FC5600"/>
<rect x="239" y="242" width="13" height="71" rx="6.5" fill="#D4F4E4"/>
<rect x="245" y="238" width="15" height="75" rx="7.5" fill="#FC5600"/>
<rect x="245" y="238" width="15" height="75" rx="7.5" fill="#40D02A"/>
<rect x="309" y="233" width="13" height="80" rx="6.5" fill="#FC5600"/>
<rect x="309" y="233" width="13" height="80" rx="6.5" fill="#D4F4E4"/>
<rect x="315" y="229" width="15" height="84" rx="7.5" fill="#FC5600"/>
<rect x="315" y="229" width="15" height="84" rx="7.5" fill="#40D02A"/>
<rect x="379" y="273" width="13" height="40" rx="6.5" fill="#FC5600"/>
<rect x="379" y="273" width="13" height="40" rx="6.5" fill="#D4F4E4"/>
<rect x="385" y="269" width="15" height="44" rx="7.5" fill="#FC5600"/>
<rect x="385" y="269" width="15" height="44" rx="7.5" fill="#40D02A"/>
<rect x="449" y="260" width="13" height="53" rx="6.5" fill="#FC5600"/>
<rect x="449" y="260" width="13" height="53" rx="6.5" fill="#D4F4E4"/>
<rect x="455" y="257" width="15" height="56" rx="7.5" fill="#FC5600"/>
<rect x="455" y="257" width="15" height="56" rx="7.5" fill="#40D02A"/>
<rect x="519" y="192" width="13" height="121" rx="6.5" fill="#FC5600"/>
<rect x="519" y="192" width="13" height="121" rx="6.5" fill="#D4F4E4"/>
<rect x="525" y="189" width="15" height="124" rx="7.5" fill="#FC5600"/>
<rect x="525" y="189" width="15" height="124" rx="7.5" fill="#40D02A"/>
<rect x="589" y="233" width="13" height="80" rx="6.5" fill="#FC5600"/>
<rect x="589" y="233" width="13" height="80" rx="6.5" fill="#D4F4E4"/>
<rect x="595" y="229" width="15" height="84" rx="7.5" fill="#FC5600"/>
<rect x="595" y="229" width="15" height="84" rx="7.5" fill="#40D02A"/>
<path d="M606.155 200.925C604.232 203.297 601.026 203.297 599.103 200.925L585.598 184.263C584.518 182.931 583.026 182.178 581.466 182.178L623.792 182.178C622.232 182.178 620.74 182.931 619.66 184.263L606.155 200.925Z" fill="#222222"/>
<g filter="url(#filter0_dddd_16410_91819)">
<rect x="411" y="71" width="280.512" height="111.179" rx="20.5253" fill="#222222"/>
<path opacity="0.55" d="M457.85 116.089L454.988 110.469H453.506V116.089H450.644V101.492H456.347C457.747 101.492 458.873 101.918 459.724 102.769C460.575 103.62 461 104.69 461 105.98C461 106.996 460.719 107.874 460.156 108.616C459.607 109.343 458.852 109.844 457.891 110.119L461.021 116.089H457.85ZM453.506 108.019H455.812C456.526 108.019 457.081 107.833 457.479 107.463C457.891 107.092 458.097 106.605 458.097 106.001C458.097 105.383 457.891 104.889 457.479 104.519C457.081 104.148 456.526 103.963 455.812 103.963H453.506V108.019ZM465.021 109.872H469.551C469.523 109.309 469.318 108.835 468.933 108.451C468.563 108.067 468.014 107.874 467.286 107.874C466.627 107.874 466.092 108.08 465.68 108.492C465.269 108.904 465.049 109.364 465.021 109.872ZM469.818 112.507L472.104 113.186C471.829 114.12 471.287 114.888 470.477 115.492C469.681 116.096 468.686 116.398 467.492 116.398C466.037 116.398 464.802 115.911 463.786 114.936C462.771 113.948 462.263 112.63 462.263 110.983C462.263 109.419 462.757 108.142 463.745 107.154C464.733 106.152 465.9 105.651 467.245 105.651C468.81 105.651 470.031 106.118 470.91 107.051C471.802 107.984 472.248 109.268 472.248 110.901C472.248 111.011 472.241 111.134 472.227 111.272C472.227 111.409 472.227 111.519 472.227 111.601L472.207 111.745H464.96C464.987 112.404 465.248 112.953 465.742 113.392C466.236 113.831 466.826 114.051 467.513 114.051C468.679 114.051 469.448 113.536 469.818 112.507ZM483.756 105.96L479.824 116.089H477.085L472.947 105.96H475.953L478.465 112.754L480.874 105.96H483.756ZM487.117 109.872H491.647C491.619 109.309 491.413 108.835 491.029 108.451C490.659 108.067 490.11 107.874 489.382 107.874C488.723 107.874 488.188 108.08 487.776 108.492C487.364 108.904 487.145 109.364 487.117 109.872ZM491.914 112.507L494.2 113.186C493.925 114.12 493.383 114.888 492.573 115.492C491.777 116.096 490.782 116.398 489.588 116.398C488.133 116.398 486.898 115.911 485.882 114.936C484.866 113.948 484.359 112.63 484.359 110.983C484.359 109.419 484.853 108.142 485.841 107.154C486.829 106.152 487.996 105.651 489.341 105.651C490.906 105.651 492.127 106.118 493.006 107.051C493.898 107.984 494.344 109.268 494.344 110.901C494.344 111.011 494.337 111.134 494.323 111.272C494.323 111.409 494.323 111.519 494.323 111.601L494.303 111.745H487.056C487.083 112.404 487.344 112.953 487.838 113.392C488.332 113.831 488.922 114.051 489.609 114.051C490.775 114.051 491.544 113.536 491.914 112.507ZM499.238 110.263V116.089H496.5V105.96H499.156V107.216C499.444 106.722 499.856 106.344 500.391 106.083C500.927 105.823 501.489 105.692 502.079 105.692C503.274 105.692 504.179 106.07 504.797 106.824C505.428 107.566 505.744 108.526 505.744 109.707V116.089H503.006V110.18C503.006 109.576 502.848 109.089 502.532 108.719C502.23 108.348 501.764 108.163 501.132 108.163C500.556 108.163 500.096 108.362 499.753 108.76C499.41 109.158 499.238 109.659 499.238 110.263ZM515.072 116.089C515.017 115.815 514.99 115.451 514.99 114.998C514.729 115.451 514.338 115.794 513.816 116.027C513.308 116.247 512.766 116.357 512.19 116.357C510.996 116.357 510.056 115.979 509.369 115.224C508.683 114.456 508.34 113.502 508.34 112.363V105.96H511.078V111.807C511.078 112.411 511.236 112.905 511.552 113.289C511.867 113.66 512.327 113.845 512.931 113.845C513.521 113.845 513.988 113.667 514.331 113.31C514.674 112.939 514.846 112.452 514.846 111.848V105.96H517.584V114.257C517.584 114.902 517.618 115.513 517.687 116.089H515.072ZM522.463 109.872H526.992C526.965 109.309 526.759 108.835 526.375 108.451C526.004 108.067 525.455 107.874 524.728 107.874C524.069 107.874 523.534 108.08 523.122 108.492C522.71 108.904 522.49 109.364 522.463 109.872ZM527.26 112.507L529.545 113.186C529.271 114.12 528.729 114.888 527.919 115.492C527.123 116.096 526.128 116.398 524.933 116.398C523.479 116.398 522.243 115.911 521.228 114.936C520.212 113.948 519.704 112.63 519.704 110.983C519.704 109.419 520.198 108.142 521.186 107.154C522.175 106.152 523.341 105.651 524.686 105.651C526.251 105.651 527.473 106.118 528.351 107.051C529.243 107.984 529.689 109.268 529.689 110.901C529.689 111.011 529.682 111.134 529.669 111.272C529.669 111.409 529.669 111.519 529.669 111.601L529.648 111.745H522.401C522.429 112.404 522.689 112.953 523.184 113.392C523.678 113.831 524.268 114.051 524.954 114.051C526.121 114.051 526.889 113.536 527.26 112.507Z" fill="#F5F5F7"/>
<path d="M457.339 153.401H454.452V150.372C452.621 150.127 451.187 149.438 450.149 148.306C449.13 147.173 448.545 145.928 448.394 144.569L451.904 143.72C451.998 144.701 452.376 145.522 453.036 146.183C453.697 146.824 454.641 147.145 455.867 147.145C456.773 147.145 457.481 146.956 457.99 146.579C458.519 146.183 458.783 145.664 458.783 145.022C458.783 143.984 458.075 143.314 456.66 143.012L454.056 142.446C452.508 142.106 451.291 141.474 450.404 140.549C449.536 139.606 449.102 138.464 449.102 137.124C449.102 135.652 449.602 134.397 450.602 133.359C451.621 132.321 452.904 131.679 454.452 131.434V128.405H457.339V131.519C458.83 131.783 459.991 132.368 460.821 133.274C461.652 134.161 462.18 135.161 462.407 136.275L458.925 137.265C458.811 136.605 458.5 136.001 457.99 135.454C457.5 134.906 456.735 134.633 455.697 134.633C454.829 134.633 454.14 134.85 453.631 135.284C453.14 135.718 452.895 136.237 452.895 136.841C452.895 137.822 453.546 138.454 454.848 138.737L457.424 139.332C459.142 139.709 460.434 140.389 461.303 141.37C462.171 142.333 462.605 143.474 462.605 144.795C462.605 146.154 462.133 147.353 461.189 148.391C460.265 149.429 458.981 150.08 457.339 150.344V153.401ZM473.018 150.089H469.14V137.803H464.723V135.17C466.045 135.152 467.149 134.821 468.036 134.18C468.923 133.519 469.46 132.698 469.649 131.717H473.018V150.089ZM483.358 139.247C484.189 139.228 484.849 138.992 485.34 138.539C485.831 138.086 486.076 137.52 486.076 136.841C486.076 136.199 485.831 135.652 485.34 135.199C484.849 134.746 484.189 134.519 483.358 134.519C482.547 134.519 481.896 134.746 481.405 135.199C480.914 135.652 480.669 136.199 480.669 136.841C480.669 137.52 480.905 138.086 481.377 138.539C481.867 138.992 482.528 139.228 483.358 139.247ZM481.094 146.551C481.641 147.041 482.396 147.287 483.358 147.287C484.321 147.287 485.076 147.041 485.623 146.551C486.189 146.041 486.472 145.437 486.472 144.739C486.472 144.022 486.199 143.408 485.651 142.899C485.104 142.389 484.34 142.134 483.358 142.134C482.377 142.134 481.613 142.389 481.065 142.899C480.537 143.408 480.273 144.022 480.273 144.739C480.273 145.437 480.546 146.041 481.094 146.551ZM488.369 149.013C487.104 150.014 485.434 150.514 483.358 150.514C481.282 150.514 479.603 150.014 478.319 149.013C477.055 148.013 476.423 146.72 476.423 145.135C476.423 144.154 476.715 143.257 477.3 142.446C477.904 141.634 478.697 141.04 479.678 140.662C478.791 140.342 478.083 139.794 477.555 139.02C477.045 138.228 476.791 137.407 476.791 136.558C476.791 135.01 477.404 133.746 478.631 132.764C479.876 131.783 481.452 131.292 483.358 131.292C485.264 131.292 486.831 131.783 488.057 132.764C489.303 133.746 489.926 135.01 489.926 136.558C489.926 137.407 489.671 138.228 489.162 139.02C488.652 139.794 487.954 140.342 487.067 140.662C488.029 141.021 488.803 141.615 489.388 142.446C489.992 143.257 490.294 144.154 490.294 145.135C490.294 146.72 489.652 148.013 488.369 149.013ZM493.874 149.551C493.364 149.042 493.109 148.428 493.109 147.711C493.109 146.994 493.364 146.39 493.874 145.899C494.383 145.39 494.987 145.135 495.685 145.135C496.402 145.135 497.016 145.39 497.525 145.899C498.035 146.39 498.29 146.994 498.29 147.711C498.29 148.428 498.035 149.042 497.525 149.551C497.016 150.042 496.402 150.287 495.685 150.287C494.987 150.287 494.383 150.042 493.874 149.551ZM501.257 149.495L502.22 146.352C503.163 146.881 504.248 147.145 505.475 147.145C507.174 147.145 508.533 146.692 509.552 145.786C510.59 144.88 511.175 143.597 511.307 141.936C510.91 142.54 510.335 143.021 509.58 143.38C508.844 143.739 508.004 143.918 507.06 143.918C505.286 143.918 503.786 143.352 502.559 142.219C501.333 141.087 500.719 139.596 500.719 137.747C500.719 135.859 501.38 134.312 502.701 133.104C504.041 131.896 505.73 131.292 507.768 131.292C509.882 131.292 511.628 132.047 513.005 133.557C514.402 135.048 515.1 137.19 515.1 139.983C515.1 143.323 514.279 145.918 512.637 147.768C510.995 149.598 508.617 150.514 505.504 150.514C503.767 150.514 502.352 150.174 501.257 149.495ZM509.863 139.813C510.486 139.247 510.797 138.52 510.797 137.633C510.797 136.746 510.486 136.02 509.863 135.454C509.259 134.887 508.514 134.604 507.627 134.604C506.759 134.604 506.013 134.887 505.39 135.454C504.786 136.02 504.484 136.746 504.484 137.633C504.484 138.539 504.786 139.275 505.39 139.841C505.994 140.389 506.74 140.662 507.627 140.662C508.514 140.662 509.259 140.379 509.863 139.813ZM524.162 139.247C524.993 139.228 525.653 138.992 526.144 138.539C526.635 138.086 526.88 137.52 526.88 136.841C526.88 136.199 526.635 135.652 526.144 135.199C525.653 134.746 524.993 134.519 524.162 134.519C523.351 134.519 522.7 134.746 522.209 135.199C521.718 135.652 521.473 136.199 521.473 136.841C521.473 137.52 521.709 138.086 522.181 138.539C522.671 138.992 523.332 139.228 524.162 139.247ZM521.898 146.551C522.445 147.041 523.2 147.287 524.162 147.287C525.125 147.287 525.88 147.041 526.427 146.551C526.993 146.041 527.276 145.437 527.276 144.739C527.276 144.022 527.003 143.408 526.455 142.899C525.908 142.389 525.144 142.134 524.162 142.134C523.181 142.134 522.417 142.389 521.869 142.899C521.341 143.408 521.077 144.022 521.077 144.739C521.077 145.437 521.35 146.041 521.898 146.551ZM529.173 149.013C527.909 150.014 526.238 150.514 524.162 150.514C522.086 150.514 520.407 150.014 519.123 149.013C517.859 148.013 517.227 146.72 517.227 145.135C517.227 144.154 517.519 143.257 518.104 142.446C518.708 141.634 519.501 141.04 520.482 140.662C519.595 140.342 518.888 139.794 518.359 139.02C517.85 138.228 517.595 137.407 517.595 136.558C517.595 135.01 518.208 133.746 519.435 132.764C520.68 131.783 522.256 131.292 524.162 131.292C526.069 131.292 527.635 131.783 528.862 132.764C530.107 133.746 530.73 135.01 530.73 136.558C530.73 137.407 530.475 138.228 529.966 139.02C529.456 139.794 528.758 140.342 527.871 140.662C528.833 141.021 529.607 141.615 530.192 142.446C530.796 143.257 531.098 144.154 531.098 145.135C531.098 146.72 530.456 148.013 529.173 149.013Z" fill="#4EEA91"/>
<path d="M551.256 94.946V158.232" stroke="#878792" stroke-opacity="0.2" stroke-width="1.03704"/>
<path opacity="0.55" d="M591.523 116.398C589.423 116.398 587.652 115.698 586.211 114.298C584.77 112.898 584.05 111.066 584.05 108.801C584.05 106.55 584.777 104.718 586.232 103.304C587.701 101.89 589.451 101.183 591.482 101.183C593.349 101.183 594.845 101.657 595.97 102.604C597.109 103.551 597.844 104.69 598.173 106.022L595.497 106.866C595.291 106.042 594.858 105.349 594.199 104.786C593.541 104.21 592.635 103.922 591.482 103.922C590.288 103.922 589.238 104.347 588.332 105.198C587.44 106.049 586.994 107.25 586.994 108.801C586.994 110.283 587.433 111.457 588.311 112.321C589.203 113.186 590.274 113.619 591.523 113.619C592.662 113.619 593.568 113.323 594.241 112.733C594.927 112.143 595.387 111.443 595.62 110.633L598.276 111.436C598.125 112.026 597.878 112.603 597.535 113.166C597.205 113.728 596.773 114.257 596.238 114.751C595.702 115.245 595.023 115.643 594.199 115.945C593.39 116.247 592.498 116.398 591.523 116.398ZM602.968 116.089H600.23V101.183H602.968V116.089ZM608.638 116.089H605.9V105.96H608.638V116.089ZM605.57 102.645C605.57 102.178 605.735 101.78 606.064 101.451C606.394 101.108 606.792 100.936 607.258 100.936C607.725 100.936 608.123 101.101 608.453 101.43C608.782 101.76 608.947 102.165 608.947 102.645C608.947 103.098 608.782 103.489 608.453 103.819C608.123 104.148 607.725 104.313 607.258 104.313C606.792 104.313 606.394 104.148 606.064 103.819C605.735 103.489 605.57 103.098 605.57 102.645ZM616.119 108.183C615.392 108.183 614.781 108.437 614.287 108.945C613.793 109.453 613.546 110.146 613.546 111.024C613.546 111.903 613.793 112.603 614.287 113.124C614.795 113.632 615.412 113.886 616.14 113.886C616.785 113.886 617.3 113.721 617.684 113.392C618.068 113.049 618.329 112.644 618.466 112.177L620.875 112.98C620.628 113.914 620.093 114.717 619.269 115.389C618.446 116.062 617.403 116.398 616.14 116.398C614.63 116.398 613.361 115.89 612.331 114.874C611.315 113.845 610.808 112.562 610.808 111.024C610.808 109.473 611.309 108.19 612.311 107.174C613.326 106.159 614.575 105.651 616.058 105.651C617.348 105.651 618.405 105.987 619.228 106.66C620.052 107.319 620.58 108.122 620.813 109.069L618.363 109.892C618.034 108.753 617.286 108.183 616.119 108.183ZM632.709 105.96L628.653 110.222L632.792 116.089H629.436L626.759 112.219L625.627 113.413V116.089H622.889V101.183H625.627V109.727L629.127 105.96H632.709ZM633.524 113.269L635.871 112.754C635.899 113.193 636.071 113.564 636.386 113.866C636.716 114.154 637.162 114.298 637.724 114.298C638.15 114.298 638.479 114.202 638.713 114.01C638.946 113.818 639.063 113.577 639.063 113.289C639.063 112.781 638.699 112.452 637.971 112.301L636.633 111.992C635.686 111.786 634.972 111.416 634.492 110.88C634.025 110.345 633.792 109.707 633.792 108.966C633.792 108.046 634.149 107.264 634.863 106.619C635.59 105.974 636.496 105.651 637.58 105.651C638.267 105.651 638.87 105.754 639.392 105.96C639.914 106.152 640.319 106.406 640.607 106.722C640.895 107.024 641.115 107.332 641.266 107.648C641.417 107.964 641.513 108.273 641.554 108.574L639.269 109.089C639.214 108.732 639.049 108.417 638.774 108.142C638.514 107.868 638.122 107.73 637.601 107.73C637.244 107.73 636.935 107.826 636.674 108.019C636.427 108.211 636.304 108.451 636.304 108.739C636.304 109.233 636.613 109.535 637.23 109.645L638.671 109.954C639.646 110.16 640.387 110.537 640.895 111.086C641.417 111.635 641.677 112.294 641.677 113.063C641.677 113.969 641.334 114.751 640.648 115.41C639.962 116.069 638.994 116.398 637.745 116.398C637.031 116.398 636.393 116.295 635.83 116.089C635.268 115.87 634.828 115.595 634.513 115.266C634.211 114.922 633.977 114.586 633.813 114.257C633.662 113.914 633.566 113.584 633.524 113.269Z" fill="#F5F5F7"/>
<path d="M611.766 131.717V134.972C611.332 135.331 610.917 135.708 610.521 136.105C610.124 136.501 609.558 137.18 608.822 138.143C608.105 139.087 607.473 140.077 606.925 141.115C606.378 142.153 605.859 143.474 605.369 145.078C604.878 146.683 604.557 148.353 604.406 150.089H600.358C600.509 148.24 600.839 146.466 601.349 144.767C601.877 143.05 602.462 141.634 603.104 140.521C603.764 139.388 604.406 138.398 605.029 137.548C605.67 136.68 606.199 136.048 606.614 135.652L607.265 135.086H597.81V131.717H611.766ZM619.945 139.247C620.776 139.228 621.436 138.992 621.927 138.539C622.418 138.086 622.663 137.52 622.663 136.841C622.663 136.199 622.418 135.652 621.927 135.199C621.436 134.746 620.776 134.519 619.945 134.519C619.134 134.519 618.483 134.746 617.992 135.199C617.501 135.652 617.256 136.199 617.256 136.841C617.256 137.52 617.492 138.086 617.964 138.539C618.455 138.992 619.115 139.228 619.945 139.247ZM617.681 146.551C618.228 147.041 618.983 147.287 619.945 147.287C620.908 147.287 621.663 147.041 622.21 146.551C622.776 146.041 623.059 145.437 623.059 144.739C623.059 144.022 622.786 143.408 622.238 142.899C621.691 142.389 620.927 142.134 619.945 142.134C618.964 142.134 618.2 142.389 617.652 142.899C617.124 143.408 616.86 144.022 616.86 144.739C616.86 145.437 617.133 146.041 617.681 146.551ZM624.956 149.013C623.692 150.014 622.021 150.514 619.945 150.514C617.869 150.514 616.19 150.014 614.907 149.013C613.642 148.013 613.01 146.72 613.01 145.135C613.01 144.154 613.302 143.257 613.887 142.446C614.491 141.634 615.284 141.04 616.265 140.662C615.378 140.342 614.671 139.794 614.142 139.02C613.633 138.228 613.378 137.407 613.378 136.558C613.378 135.01 613.991 133.746 615.218 132.764C616.463 131.783 618.039 131.292 619.945 131.292C621.852 131.292 623.418 131.783 624.645 132.764C625.89 133.746 626.513 135.01 626.513 136.558C626.513 137.407 626.258 138.228 625.749 139.02C625.239 139.794 624.541 140.342 623.654 140.662C624.616 141.021 625.39 141.615 625.975 142.446C626.579 143.257 626.881 144.154 626.881 145.135C626.881 146.72 626.239 148.013 624.956 149.013Z" fill="white"/>
</g>
<defs>
<filter id="filter0_dddd_16410_91819" x="340.872" y="0.871956" width="420.768" height="292.485" filterUnits="userSpaceOnUse" color-interpolation-filters="sRGB">
<feFlood flood-opacity="0" result="BackgroundImageFix"/>
<feColorMatrix in="SourceAlpha" type="matrix" values="0 0 0 0 0 0 0 0 0 0 0 0 0 0 0 0 0 0 127 0" result="hardAlpha"/>
<feOffset/>
<feGaussianBlur stdDeviation="35.064"/>
<feColorMatrix type="matrix" values="0 0 0 0 0 0 0 0 0 0 0 0 0 0 0 0 0 0 0.08 0"/>
<feBlend mode="normal" in2="BackgroundImageFix" result="effect1_dropShadow_16410_91819"/>
<feColorMatrix in="SourceAlpha" type="matrix" values="0 0 0 0 0 0 0 0 0 0 0 0 0 0 0 0 0 0 127 0" result="hardAlpha"/>
<feOffset dy="6.84176"/>
<feGaussianBlur stdDeviation="6.84176"/>
<feColorMatrix type="matrix" values="0 0 0 0 0 0 0 0 0 0 0 0 0 0 0 0 0 0 0.04 0"/>
<feBlend mode="normal" in2="effect1_dropShadow_16410_91819" result="effect2_dropShadow_16410_91819"/>
<feColorMatrix in="SourceAlpha" type="matrix" values="0 0 0 0 0 0 0 0 0 0 0 0 0 0 0 0 0 0 127 0" result="hardAlpha"/>
<feOffset dy="10.2626"/>
<feGaussianBlur stdDeviation="20.5253"/>
<feColorMatrix type="matrix" values="0 0 0 0 0 0 0 0 0 0 0 0 0 0 0 0 0 0 0.04 0"/>
<feBlend mode="normal" in2="effect2_dropShadow_16410_91819" result="effect3_dropShadow_16410_91819"/>
<feColorMatrix in="SourceAlpha" type="matrix" values="0 0 0 0 0 0 0 0 0 0 0 0 0 0 0 0 0 0 127 0" result="hardAlpha"/>
<feOffset dy="41.0506"/>
<feGaussianBlur stdDeviation="35.064"/>
<feColorMatrix type="matrix" values="0 0 0 0 0 0 0 0 0 0 0 0 0 0 0 0 0 0 0.04 0"/>
<feBlend mode="normal" in2="effect3_dropShadow_16410_91819" result="effect4_dropShadow_16410_91819"/>
<feBlend mode="normal" in="SourceGraphic" in2="effect4_dropShadow_16410_91819" result="shape"/>
</filter>
<linearGradient id="paint0_linear_16410_91819" x1="22.6475" y1="81.4211" x2="22.6475" y2="255.737" gradientUnits="userSpaceOnUse">
<stop stop-color="#878792"/>
<stop offset="0.491487" stop-color="#878792" stop-opacity="0.34"/>
<stop offset="1" stop-color="#F6F6F8"/>
</linearGradient>
</defs>
</svg>
