<svg width="223" height="130" viewBox="0 0 223 130" fill="none" xmlns="http://www.w3.org/2000/svg">
<path d="M24 0L28.2045 16.8808C28.5621 18.3167 29.6833 19.4379 31.1192 19.7955L48 24L31.1192 28.2045C29.6833 28.5621 28.5621 29.6833 28.2045 31.1192L24 48L19.7955 31.1192C19.4379 29.6833 18.3167 28.5621 16.8808 28.2045L0 24L16.8808 19.7955C18.3167 19.4379 19.4379 18.3167 19.7955 16.8808L24 0Z" fill="#878792" fill-opacity="0.2"/>
<path d="M207 71L209.609 81.4761C209.967 82.912 211.088 84.0331 212.524 84.3907L223 87L212.524 89.6093C211.088 89.9669 209.967 91.088 209.609 92.5239L207 103L204.391 92.5239C204.033 91.0881 202.912 89.9669 201.476 89.6093L191 87L201.476 84.3907C202.912 84.0331 204.033 82.912 204.391 81.4761L207 71Z" fill="#878792" fill-opacity="0.2"/>
<g opacity="0.2">
<path fill-rule="evenodd" clip-rule="evenodd" d="M165.127 119.599L163.566 121.16C161.402 123.324 157.892 123.324 155.728 121.16L131.888 96.9893C124.896 102.108 116.291 105.149 106.96 105.101C83.8042 104.982 65.1311 86.112 65.2506 62.9581C65.3701 39.8024 84.2381 21.1292 107.394 21.2506C130.55 21.3719 149.223 40.2381 149.101 63.3939C149.055 72.4179 146.134 80.7395 141.247 87.5553L165.127 111.765C167.291 113.925 167.291 117.435 165.127 119.599ZM107.177 34.4134C91.293 34.4134 78.417 47.2893 78.417 63.1732C78.417 79.0572 91.293 91.9331 107.177 91.9331C123.061 91.9331 135.937 79.0572 135.937 63.1732C135.935 47.2893 123.059 34.4134 107.177 34.4134Z" fill="#FC5600"/>
<path fill-rule="evenodd" clip-rule="evenodd" d="M165.127 119.599L163.566 121.16C161.402 123.324 157.892 123.324 155.728 121.16L131.888 96.9893C124.896 102.108 116.291 105.149 106.96 105.101C83.8042 104.982 65.1311 86.112 65.2506 62.9581C65.3701 39.8024 84.2381 21.1292 107.394 21.2506C130.55 21.3719 149.223 40.2381 149.101 63.3939C149.055 72.4179 146.134 80.7395 141.247 87.5553L165.127 111.765C167.291 113.925 167.291 117.435 165.127 119.599ZM107.177 34.4134C91.293 34.4134 78.417 47.2893 78.417 63.1732C78.417 79.0572 91.293 91.9331 107.177 91.9331C123.061 91.9331 135.937 79.0572 135.937 63.1732C135.935 47.2893 123.059 34.4134 107.177 34.4134Z" fill="url(#paint0_linear_16410_91818)" fill-opacity="0.2"/>
</g>
<path fill-rule="evenodd" clip-rule="evenodd" d="M172.127 112.599L170.566 114.16C168.402 116.324 164.892 116.324 162.728 114.16L138.888 89.9893C131.896 95.1081 123.291 98.1492 113.96 98.1014C90.8042 97.9819 72.1311 79.112 72.2506 55.9581C72.3701 32.8024 91.2381 14.1292 114.394 14.2506C137.55 14.3719 156.223 33.2381 156.101 56.3939C156.055 65.4179 153.134 73.7395 148.247 80.5553L172.127 104.765C174.291 106.925 174.291 110.435 172.127 112.599ZM114.177 27.4134C98.293 27.4134 85.417 40.2893 85.417 56.1732C85.417 72.0572 98.293 84.9331 114.177 84.9331C130.061 84.9331 142.937 72.0572 142.937 56.1732C142.935 40.2893 130.059 27.4134 114.177 27.4134Z" fill="#FC5600"/>
<path fill-rule="evenodd" clip-rule="evenodd" d="M172.127 112.599L170.566 114.16C168.402 116.324 164.892 116.324 162.728 114.16L138.888 89.9893C131.896 95.1081 123.291 98.1492 113.96 98.1014C90.8042 97.9819 72.1311 79.112 72.2506 55.9581C72.3701 32.8024 91.2381 14.1292 114.394 14.2506C137.55 14.3719 156.223 33.2381 156.101 56.3939C156.055 65.4179 153.134 73.7395 148.247 80.5553L172.127 104.765C174.291 106.925 174.291 110.435 172.127 112.599ZM114.177 27.4134C98.293 27.4134 85.417 40.2893 85.417 56.1732C85.417 72.0572 98.293 84.9331 114.177 84.9331C130.061 84.9331 142.937 72.0572 142.937 56.1732C142.935 40.2893 130.059 27.4134 114.177 27.4134Z" fill="url(#paint1_linear_16410_91818)" fill-opacity="0.2"/>
<defs>
<linearGradient id="paint0_linear_16410_91818" x1="166.75" y1="72.0165" x2="65.25" y2="72.0165" gradientUnits="userSpaceOnUse">
<stop stop-color="#DB3900"/>
<stop offset="0.491487" stop-color="#DB3900"/>
<stop offset="1" stop-color="#FC5600" stop-opacity="0"/>
</linearGradient>
<linearGradient id="paint1_linear_16410_91818" x1="173.75" y1="65.0165" x2="72.25" y2="65.0165" gradientUnits="userSpaceOnUse">
<stop stop-color="#DB3900"/>
<stop offset="0.491487" stop-color="#DB3900"/>
<stop offset="1" stop-color="#FC5600" stop-opacity="0"/>
</linearGradient>
</defs>
</svg>
