<svg width="174" height="35" viewBox="0 0 174 35" fill="none" xmlns="http://www.w3.org/2000/svg">
<g clip-path="url(#clip0_5873_5952)">
<path d="M24.0206 0H10.9746C8.06661 0.0110795 5.28095 1.1715 3.22509 3.2282C1.16923 5.28491 0.00992734 8.07106 0 10.9791L0 35H24.0206C26.9296 34.9901 29.7166 33.83 31.7734 31.7728C33.8303 29.7157 34.99 26.9285 34.9995 24.0195V0H24.0206ZM23.7582 24.2471C23.1529 25.0805 22.3439 25.7448 21.4085 26.1764C19.9126 26.9273 18.5601 26.9273 17.4657 26.9273C16.1095 26.9587 14.761 26.7156 13.5012 26.2127C12.2552 25.7051 11.1272 24.9461 10.1875 23.9832L13.1011 21.1841C13.7896 21.9089 14.6057 22.7091 15.5465 23.0816C16.2313 23.3504 16.9661 23.4681 17.7005 23.4266C18.3514 23.3918 19.0631 23.2744 19.6024 22.883C20.2735 22.3945 20.6011 21.4334 20.2692 20.6521C19.9792 19.9824 19.3835 19.72 18.7355 19.5026C17.2439 19.001 15.6726 18.7952 14.1796 18.3009C13.1112 17.9457 12.0777 17.421 11.4761 16.4266C10.917 15.4685 10.6712 14.3596 10.7731 13.2549C10.8584 12.3429 11.1654 11.4655 11.6675 10.6993C12.3111 9.74115 13.5852 8.91779 14.6724 8.5525C15.6161 8.23794 18.06 7.76683 20.4025 8.33796C22.745 8.90909 24.1714 10.637 24.1598 10.6573C24.1482 10.6776 23.0624 11.7053 21.336 13.3491C21.3085 13.3071 21.278 13.2636 21.2476 13.2201C21.2172 13.1766 21.1737 13.1187 21.1287 13.0636C20.987 12.8922 20.8355 12.7291 20.675 12.5751C20.1948 12.1317 19.6241 11.7978 19.0022 11.5966C17.5527 11.1849 15.5421 11.7764 15.2015 12.9114C15.1078 13.297 15.1594 13.7036 15.3465 14.0536C15.4581 14.2653 15.7219 14.6436 16.9903 15.0973C17.844 15.4032 18.1354 15.4003 19.4632 15.7076C20.0892 15.8428 20.7056 16.0191 21.3085 16.2352C22.1544 16.5386 22.9347 17.0006 23.6075 17.5964C24.512 18.4183 24.7845 19.7374 24.8106 20.9116C24.829 22.1078 24.4598 23.2779 23.7582 24.2471ZM29.9232 7.24788C29.496 7.24788 29.0784 7.1212 28.7233 6.88387C28.3681 6.64654 28.0912 6.30922 27.9278 5.91456C27.7643 5.51989 27.7215 5.08561 27.8049 4.66664C27.8882 4.24767 28.0939 3.86282 28.396 3.56075C28.698 3.25869 29.0829 3.05298 29.5018 2.96964C29.9208 2.8863 30.3551 2.92908 30.7497 3.09255C31.1444 3.25603 31.4817 3.53286 31.719 3.88805C31.9564 4.24324 32.083 4.66083 32.083 5.08801C32.083 5.66084 31.8555 6.21021 31.4504 6.61527C31.0454 7.02032 30.496 7.24788 29.9232 7.24788Z" fill="#F25522"/>
<path d="M135.833 10.0227C132.499 7.82949 127.33 8.28321 125.068 11.5578C125.054 11.581 124.984 11.5665 124.863 11.5723V9.25297H120.633V34.9974H125.064V24.9707C125.85 25.5824 126.525 26.2913 127.35 26.7102C130.296 28.225 133.237 28.0061 135.959 26.1927C141.254 22.6717 141.151 13.5205 135.833 10.0227ZM134.492 21.3468C133.592 23.05 132.121 23.9053 130.161 23.8995C128.494 23.9067 127.154 23.2124 126.147 21.8846C124.332 19.4913 124.563 15.9674 126.657 13.8278C128.943 11.4955 132.8 11.9318 134.424 14.7599C135.66 16.9169 135.65 19.1594 134.492 21.3468Z" fill="#222222"/>
<path d="M114.383 10.0227C111.049 7.82949 105.88 8.28321 103.619 11.5578C103.604 11.581 103.533 11.5665 103.411 11.5723V9.25297H99.1831V34.9974H103.614V24.9707C104.4 25.5824 105.076 26.2913 105.899 26.7102C108.844 28.225 111.787 28.0061 114.509 26.1927C119.803 22.6717 119.7 13.5205 114.383 10.0227ZM113.042 21.3468C112.142 23.0457 110.671 23.9053 108.717 23.8995C107.05 23.9067 105.712 23.2124 104.703 21.8846C102.888 19.4913 103.119 15.9674 105.213 13.8278C107.499 11.4955 111.356 11.9318 112.98 14.7599C114.211 16.9169 114.198 19.1594 113.042 21.3468Z" fill="#222222"/>
<path d="M70.7598 26.3576C70.7598 23.4019 70.7699 20.4434 70.7598 17.4877C70.7612 16.8083 70.7098 16.1297 70.6061 15.4583C70.1568 12.736 67.5345 11.6372 65.2225 13.1897C64.1034 13.942 63.5178 15.0451 63.338 16.3469C63.2471 17.1752 63.2098 18.0085 63.2264 18.8416C63.2134 21.3175 63.2264 23.7948 63.2264 26.2707V27.1317H58.8154V0H63.1815V11.6111C63.2909 11.5337 63.3941 11.4479 63.4903 11.3545C65.2138 8.95403 67.6012 8.27708 70.3655 8.8801C73.0573 9.46863 74.4779 11.3661 75.0215 13.9739C75.1579 14.6418 75.2273 15.3216 75.2288 16.0033C75.252 19.7606 75.2172 22.3351 75.2389 26.6171C75.2389 26.8432 75.2389 27.0215 75.2389 27.1143H70.7598V26.3576Z" fill="#222222"/>
<path d="M156.559 21.5251C155.75 22.5803 154.609 23.3313 153.32 23.6565C152.03 23.9817 150.669 23.862 149.457 23.3168C147.801 22.5355 146.656 20.9105 146.776 19.4494C151.241 19.4146 155.711 19.3827 160.243 19.3508C160.234 18.4361 160.279 17.6011 160.215 16.7749C159.851 12.1102 156.986 8.8979 152.647 8.56449C150.048 8.3659 147.656 8.86746 145.617 10.5142C142.684 12.8842 141.82 16.0791 142.297 19.6856C142.749 23.1269 144.617 25.5666 147.879 26.8089C150.344 27.7467 152.876 27.7453 155.379 26.9379C157.066 26.4003 158.521 25.3074 159.508 23.8372L156.559 21.5251ZM150.599 11.9898C151.321 11.8904 152.053 11.8972 152.773 12.0101C154.647 12.3609 155.901 14.1613 155.745 16.1675L146.705 16.2327C146.707 14.1888 148.49 12.2232 150.599 11.9898Z" fill="#222222"/>
<path d="M94.2338 11.4381C92.2537 9.44638 89.8388 8.62013 87.1672 8.67666C85.6144 8.62771 84.0727 8.95495 82.6736 9.63048C80.9421 10.4046 79.5208 11.738 78.638 13.4168C77.8169 14.7969 77.401 16.3803 77.4378 17.9858C77.4098 19.2997 77.6528 20.6052 78.1515 21.821C78.6503 23.0369 79.3942 24.1369 80.3369 25.0525C81.9648 26.605 84.2507 27.6255 87.1324 27.6893H87.2411C87.821 27.6241 88.4008 27.5893 88.9676 27.4864C92.6234 26.8166 95.2398 24.8119 96.3966 21.2532C97.5852 17.6191 96.9923 14.2169 94.2338 11.4381ZM92.0595 20.1631C91.3347 22.5491 89.5604 23.8987 87.2151 23.8914H87.0223C86.9266 23.8914 86.8324 23.8914 86.7324 23.8769C86.6947 23.8769 86.6599 23.8682 86.6251 23.8668C86.5149 23.8537 86.4062 23.8421 86.2989 23.8247L86.183 23.803C86.0902 23.787 85.9989 23.7682 85.9076 23.745C85.8162 23.7218 85.7626 23.7102 85.6974 23.6899L85.5524 23.6464C84.0347 23.1565 82.9055 21.9519 82.3634 20.1674C82.0411 19.1536 81.9578 18.079 82.1199 17.0277C82.1735 16.7667 82.23 16.5 82.2996 16.2362C82.3725 15.9831 82.4596 15.7344 82.5605 15.4911C83.5752 13.0747 85.2828 12.3818 87.1991 12.3281C89.1212 12.3731 90.8418 13.0631 91.8623 15.4911C92.4835 16.9751 92.5524 18.6326 92.0566 20.1631H92.0595Z" fill="#222222"/>
<path d="M41.7476 24.6929L44.6757 21.9518C45.6164 23.0955 46.7761 23.871 48.1981 24.0479C49.0671 24.1371 49.9449 24.0783 50.7942 23.8739C51.6219 23.6884 52.0988 23.0245 52.138 22.146C52.1771 21.2676 51.7191 20.6602 50.9522 20.3877C49.7303 19.9528 48.4663 19.6368 47.224 19.2599C46.7456 19.115 46.2658 18.97 45.802 18.7816C41.4837 17.0508 42.2332 11.9468 44.7873 10.1668C46.5441 8.93751 48.5155 8.56207 50.5899 8.69833C52.238 8.8056 53.8282 9.20713 55.2052 10.1812C55.6894 10.5219 56.1112 10.951 56.6041 11.3757L53.6731 13.9632C52.3569 12.5136 50.8102 11.8265 48.9011 12.1382C48.5557 12.1892 48.2188 12.2867 47.8995 12.4281C47.2515 12.718 46.8848 13.2326 46.8775 13.9733C46.8606 14.2948 46.9511 14.6127 47.1349 14.877C47.3186 15.1413 47.585 15.3369 47.8922 15.4331C49.0925 15.8534 50.3333 16.1578 51.5422 16.5521C52.3359 16.7939 53.111 17.0928 53.8615 17.4465C57.8768 19.4266 56.9302 24.7611 54.1514 26.3947C52.3337 27.4616 50.371 27.7269 48.3242 27.6327C45.8455 27.5356 43.2551 26.3759 41.7476 24.6929Z" fill="#222222"/>
<path d="M163.338 27.1036V9.23324H167.552V11.9613C169.097 9.65362 171.048 8.31566 173.947 8.75488V12.8021C173.077 12.8021 172.208 12.6571 171.399 12.8296C169.152 13.2993 167.804 15.149 167.784 17.6756C167.76 20.5283 167.784 23.3825 167.784 26.2353V27.1051L163.338 27.1036Z" fill="#222222"/>
</g>
<defs>
<clipPath id="clip0_5873_5952">
<rect width="173.947" height="35" fill="white"/>
</clipPath>
</defs>
</svg>
