<svg width="182" height="148" viewBox="0 0 182 148" fill="none" xmlns="http://www.w3.org/2000/svg">
<path d="M19.0002 74.6075L4.61276 74.1682C4.24667 72.5573 4.06362 70.9099 4.06362 69.2259C4.06362 62.6363 6.40661 57.0351 11.0926 52.4223C15.7786 47.7363 22.112 45.3933 30.0928 45.3933C37.8539 45.3933 44.0775 47.6265 48.7635 52.0928C53.4494 56.4859 55.7924 61.9041 55.7924 68.3473C55.7924 77.4264 51.1797 84.7848 41.9541 90.4226L28.2257 98.7695C25.0041 100.82 22.954 102.98 22.0753 105.249H56.2317V118.319H3.51448C3.5877 111.656 4.86902 105.835 7.35845 100.856C9.92109 95.8774 14.241 91.5575 20.3181 87.8966L32.0697 80.8676C37.7075 77.4996 40.5264 73.3994 40.5264 68.5669C40.5264 65.8579 39.5745 63.5515 37.6709 61.6478C35.8404 59.7441 33.2045 58.7923 29.7633 58.7923C26.1024 58.7923 23.2835 59.8906 21.3066 62.0871C19.4029 64.2837 18.451 67.1392 18.451 70.6537C18.451 71.9716 18.6341 73.2895 19.0002 74.6075ZM62.818 98.3302L76.9857 95.1452C77.1321 98.5133 78.3769 101.369 80.7198 103.712C83.1361 105.982 86.2112 107.116 89.9454 107.116C93.4598 107.116 96.3886 106.055 98.7316 103.931C101.075 101.808 102.246 98.9892 102.246 95.4747C102.246 91.5941 101.001 88.6288 98.5119 86.5787C96.0957 84.5286 93.1304 83.5035 89.6159 83.5035C85.1496 83.5035 81.4886 85.1143 78.6331 88.3359C73.4346 86.359 68.8219 84.7848 64.7948 83.6133L73.2516 47.0407H113.448V60.1102H83.5754L80.0609 75.8156C83.2093 72.8868 87.4926 71.4225 92.9107 71.4225C100.233 71.4225 106.127 73.5458 110.593 77.7925C115.059 81.9659 117.292 87.7868 117.292 95.2551C117.292 102.138 114.803 107.995 109.824 112.827C104.845 117.66 98.219 120.076 89.9454 120.076C82.4771 120.076 76.1803 117.916 71.055 113.596C66.003 109.276 63.2573 104.188 62.818 98.3302ZM180.631 64.2837L158.995 87.018L181.071 118.319H163.169L148.891 97.6713L142.851 104.041V118.319H128.243V38.8037H142.851V84.3821L161.521 64.2837H180.631Z" fill="#FFE2D3"/>
<path d="M19.0002 67.1163L4.61276 66.6769C4.24667 65.0661 4.06362 63.4187 4.06362 61.7347C4.06362 55.145 6.40661 49.5438 11.0926 44.9311C15.7786 40.2451 22.112 37.9021 30.0928 37.9021C37.8539 37.9021 44.0775 40.1353 48.7635 44.6016C53.4494 48.9947 55.7924 54.4129 55.7924 60.8561C55.7924 69.9352 51.1797 77.2936 41.9541 82.9314L28.2257 91.2783C25.0041 93.3284 22.954 95.4884 22.0753 97.7582H56.2317V110.828H3.51448C3.5877 104.165 4.86902 98.3439 7.35845 93.365C9.92109 88.3862 14.241 84.0663 20.3181 80.4054L32.0697 73.3764C37.7075 70.0084 40.5264 65.9081 40.5264 61.0757C40.5264 58.3667 39.5745 56.0603 37.6709 54.1566C35.8404 52.2529 33.2045 51.3011 29.7633 51.3011C26.1024 51.3011 23.2835 52.3994 21.3066 54.5959C19.4029 56.7925 18.451 59.648 18.451 63.1625C18.451 64.4804 18.6341 65.7983 19.0002 67.1163ZM62.818 90.839L76.9857 87.654C77.1321 91.0221 78.3769 93.8776 80.7198 96.2206C83.1361 98.4903 86.2112 99.6252 89.9454 99.6252C93.4598 99.6252 96.3886 98.5636 98.7316 96.4402C101.075 94.3169 102.246 91.498 102.246 87.9835C102.246 84.1029 101.001 81.1376 98.5119 79.0875C96.0957 77.0373 93.1304 76.0123 89.6159 76.0123C85.1496 76.0123 81.4886 77.6231 78.6331 80.8447C73.4346 78.8678 68.8219 77.2936 64.7948 76.1221L73.2516 39.5495H113.448V52.619H83.5754L80.0609 68.3244C83.2093 65.3956 87.4926 63.9313 92.9107 63.9313C100.233 63.9313 106.127 66.0546 110.593 70.3013C115.059 74.4747 117.292 80.2956 117.292 87.7638C117.292 94.6464 114.803 100.504 109.824 105.336C104.845 110.169 98.219 112.585 89.9454 112.585C82.4771 112.585 76.1803 110.425 71.055 106.105C66.003 101.785 63.2573 96.6965 62.818 90.839ZM180.631 56.7925L158.995 79.5268L181.071 110.828H163.169L148.891 90.18L142.851 96.55V110.828H128.243V31.3125H142.851V76.8909L161.521 56.7925H180.631Z" fill="#F55001"/>
</svg>
