<svg width="51" height="50" viewBox="0 0 51 50" fill="none" xmlns="http://www.w3.org/2000/svg">
<g clip-path="url(#clip0_6721_5122)">
<path d="M10.9505 33.806C9.62229 30.9855 10.7114 27.5933 13.2396 25.7565L18.178 22.1685C19.0544 21.5318 19.2526 20.2805 18.6158 19.404C17.9791 18.5276 16.7278 18.3294 15.8513 18.9662L11.0815 22.4317C6.68246 25.6277 5.09425 31.7002 7.85672 36.3885C11.0171 41.7662 18.0347 43.1313 22.9562 39.5556L28.0968 35.8207C28.9733 35.1839 29.1715 33.9326 28.5347 33.0562C27.8979 32.1798 26.6466 31.9816 25.7702 32.6183L20.6296 36.3532C17.4103 38.6921 12.7346 37.6085 10.9505 33.806ZM21.4289 30.3647L31.5416 23.0174C32.4686 22.3439 32.676 21.0344 32.0025 20.1074C31.329 19.1804 30.0195 18.973 29.0925 19.6465L18.9798 26.9938C18.0528 27.6673 17.8454 28.9768 18.5189 29.9038C19.1924 30.8308 20.5019 31.0382 21.4289 30.3647ZM27.1944 10.7249L22.4246 14.1904C21.5481 14.8272 21.35 16.0785 21.9867 16.9549C22.6235 17.8314 23.8748 18.0296 24.7512 17.3928L29.6896 13.8048C32.2178 11.968 35.7805 11.9804 38.0525 14.1152C41.1176 16.987 40.7033 21.7688 37.4841 24.1077L32.3435 27.8426C31.467 28.4794 31.2688 29.7307 31.9056 30.6071C32.5424 31.4835 33.7937 31.6817 34.6701 31.0449L39.8107 27.3101C44.7323 23.7344 45.6026 16.6384 41.4815 11.9587C37.8763 7.88262 31.5934 7.52886 27.1944 10.7249Z" fill="#936BB2"/>
</g>
<defs>
<clipPath id="clip0_6721_5122">
<rect width="50" height="50" fill="white" transform="translate(0.257812)"/>
</clipPath>
</defs>
</svg>
