<svg width="51" height="36" viewBox="0 0 51 36" fill="none" xmlns="http://www.w3.org/2000/svg">
<g clip-path="url(#clip0_6721_5070)">
<mask id="path-1-outside-1_6721_5070" maskUnits="userSpaceOnUse" x="0.0878906" y="1.21875" width="51" height="34" fill="black">
<rect fill="white" x="0.0878906" y="1.21875" width="51" height="34"/>
<path d="M35.6562 28.322C35.6095 28.6838 35.4855 29.0312 35.2925 29.3407C35.0995 29.6503 34.8422 29.9146 34.5379 30.1157C34.2336 30.3169 33.8896 30.4501 33.5293 30.5065C33.1689 30.5628 32.8006 30.5408 32.4495 30.442C32.129 30.3534 32.0222 30.3636 31.9532 30.7372C31.6511 32.374 29.8213 33.2186 28.3404 32.413C28.0381 32.2485 27.9775 32.2616 27.8874 32.6107C27.7834 33.0215 27.5756 33.3987 27.2841 33.7062C26.9926 34.0137 26.627 34.2412 26.2224 34.367C25.8177 34.4928 25.3876 34.5126 24.9731 34.4246C24.5586 34.3366 24.1737 34.1436 23.8551 33.8642C23.4337 33.5076 23.0168 33.1457 22.6043 32.7786C22.454 32.6446 22.3363 32.5703 22.132 32.7147C20.8765 33.6022 19.0315 32.76 18.6508 31.2384C18.5845 30.9738 18.5158 30.9118 18.2365 30.9327C17.6409 30.9817 17.0497 30.7964 16.5888 30.4161C16.1278 30.0358 15.8334 29.4906 15.7684 28.8966C15.7409 28.6698 15.7035 28.5942 15.4489 28.5998C14.0018 28.6316 12.9894 27.6465 13.0021 26.2181C13.0046 25.93 12.9514 25.8348 12.6437 25.8047C12.2842 25.7731 11.9372 25.6576 11.6304 25.4676C11.3236 25.2776 11.0656 25.0182 10.8771 24.7105C10.6886 24.4027 10.575 24.055 10.5452 23.6953C10.5154 23.3357 10.5703 22.974 10.7056 22.6394C10.748 22.5612 10.7628 22.471 10.7475 22.3833C10.7322 22.2956 10.6878 22.2157 10.6214 22.1564C10.1618 21.6611 9.77683 21.1015 9.47866 20.4951C9.31891 20.1581 8.97423 20.065 8.67252 19.9241C8.52539 19.8555 8.46147 20.0074 8.37451 20.0847C7.65417 20.7244 6.9437 20.8274 6.09161 20.3924C4.79503 19.7305 3.49995 19.0654 2.2118 18.3873C1.12619 17.8158 0.796176 16.802 1.35721 15.7125C3.48342 11.5836 5.6169 7.45847 7.75764 3.33708C8.332 2.23161 9.35624 1.92973 10.4729 2.50285C11.7409 3.15368 13.0074 3.80765 14.2722 4.46477C15.158 4.92469 15.5111 5.58578 15.3693 6.57585C15.3399 6.78149 15.3724 6.8746 15.5519 6.96618C16.139 7.26569 16.7171 7.58278 17.3005 7.88975C17.5801 8.0369 17.8895 8.04213 18.1953 8.06916C19.3461 8.17093 20.4946 8.0324 21.6442 8.04425C21.7974 8.03275 21.9402 7.96303 22.0435 7.84941C22.4345 7.52825 22.8324 7.21504 23.2143 6.88345C24.3161 5.92693 25.595 5.64626 27.0251 5.77623C29.1522 5.96956 31.2372 6.40188 33.3307 6.79215C33.7824 6.87637 34.2401 6.92834 34.6921 7.01144C35.6372 7.18519 36.4655 6.78382 37.3188 6.49815C37.4871 6.44183 37.4458 6.33217 37.4341 6.20539C37.3306 5.08187 37.7754 4.4078 38.8534 4.04881C40.2194 3.59392 41.5859 3.14072 42.9529 2.68921C44.0551 2.32489 45.0428 2.79886 45.4088 3.89789C46.8896 8.34564 48.3641 12.7955 49.832 17.2476C50.1839 18.315 49.7175 19.2827 48.6649 19.6482C47.2178 20.1507 45.7618 20.6283 44.3033 21.0968C43.4827 21.3605 42.7575 21.1282 42.2282 20.4213C42.0586 20.1949 41.9291 20.2078 41.7463 20.3341C41.6143 20.4118 41.4962 20.511 41.3969 20.6277C40.6492 21.6703 39.6452 22.4234 38.5916 23.1174C38.351 23.2759 38.3161 23.3535 38.5414 23.5786C38.9669 23.9849 39.2405 24.5246 39.3168 25.1079C39.3932 25.6913 39.2675 26.2832 38.9609 26.7853C38.6581 27.2887 38.1989 27.6792 37.6534 27.897C37.1079 28.1148 36.5061 28.148 35.9399 27.9915C35.8983 27.9717 35.8604 27.9449 35.8277 27.9124C35.5246 27.9459 35.6834 28.1729 35.6562 28.322ZM26.0559 12.7452L26.3469 13.0193C26.4612 13.2314 26.6874 13.3177 26.8581 13.4655C30.2789 16.4264 33.7027 19.3838 37.1297 22.3376C37.2731 22.4614 37.3922 22.579 37.6068 22.4368C38.6183 21.7671 39.6395 21.1103 40.3721 20.1116C40.6119 19.7516 40.9491 19.4672 41.3443 19.2917C41.6487 19.1705 41.6666 19.0268 41.5706 18.7394C40.3666 15.136 39.1729 11.5292 37.9895 7.9189C37.878 7.57821 37.7559 7.50356 37.4197 7.6374C36.5034 8.00226 35.5671 8.29018 34.557 8.11691C33.7719 7.98222 32.9831 7.86636 32.2016 7.71336C30.3961 7.35989 28.5892 7.0253 26.7519 6.87432C25.7787 6.79435 24.8902 6.96978 24.116 7.59117C22.6084 8.80117 21.1423 10.0596 19.7179 11.3666C19.4817 11.5745 19.2981 11.8355 19.1822 12.128C19.0662 12.4206 19.0212 12.7364 19.0508 13.0497C19.1363 14.6881 19.2486 16.3273 19.0812 17.9685C19.0284 18.486 19.1662 18.6344 19.6838 18.638C20.4925 18.6436 21.0297 18.1546 21.4521 17.5535C22.0542 16.7132 22.4118 15.7226 22.4853 14.6915C22.5579 13.6527 23.0071 12.8477 23.9305 12.3341C24.5646 11.9813 25.1644 12.0521 25.7294 12.4948C25.8373 12.5794 25.947 12.6618 26.0559 12.7452ZM25.4312 13.7495C24.8253 13.1046 24.6773 13.0838 24.1419 13.5677C23.723 13.8848 23.6433 14.3446 23.5907 14.827C23.4231 16.362 22.9128 17.7535 21.7861 18.8539C21.1341 19.4906 20.3549 19.8513 19.4132 19.7375C18.5841 19.6372 17.8231 19.1061 17.9541 17.9985C18.1272 16.7344 18.1323 15.453 17.9692 14.1876C17.6838 12.2619 18.3043 10.7976 19.8883 9.70316C20.0487 9.59236 20.2435 9.47896 20.3131 9.22711C19.7259 9.22711 19.1755 9.23267 18.6252 9.22582C17.7712 9.2152 16.9417 9.10585 16.2268 8.5771C16.3639 8.39111 16.0167 8.62273 16.1953 8.5C15.885 8.34042 16.2194 8.39843 15.941 8.41424C15.6544 8.27066 15.3589 8.14221 15.0841 7.97887C14.8506 7.84013 14.7508 7.90927 14.6355 8.13324C12.8468 11.6071 11.0518 15.0776 9.2504 18.5449C9.12294 18.7902 9.13128 18.9154 9.40583 19.0258C9.67736 19.1337 9.92411 19.2957 10.1311 19.5019C10.338 19.7081 10.5009 19.9543 10.6098 20.2255C10.7749 20.607 11.0659 20.913 11.3097 21.247C11.4866 21.4894 11.6121 21.4859 11.7882 21.2429C12.0876 20.8297 12.4364 20.4691 12.9412 20.2955C14.0087 19.9283 15.1926 20.4094 15.7923 21.4786C15.9053 21.6802 15.9511 21.7909 16.2043 21.5974C16.9994 20.9896 17.875 20.9188 18.7457 21.4078C19.6166 21.8969 20.0017 22.6786 19.9125 23.6777C19.892 23.9071 19.8675 24.045 20.1861 24.1092C21.9903 24.4727 22.7085 26.1023 21.7879 27.7129C21.6829 27.8966 21.6688 27.9509 21.8864 28.0243C22.1562 28.1295 22.4201 28.2492 22.6769 28.383C23.812 29.4982 23.9346 30.2029 23.201 31.5457C23.1049 31.7217 23.1764 31.7927 23.2856 31.887C23.7265 32.2681 24.1578 32.6609 24.6094 33.0289C24.8849 33.26 25.2408 33.3724 25.5991 33.3413C25.9574 33.3102 26.2887 33.1382 26.5203 32.8631C26.7519 32.5879 26.8648 32.2321 26.8343 31.8738C26.8038 31.5154 26.6324 31.1838 26.3576 30.9518C25.3778 30.0934 24.3848 29.2501 23.3974 28.4005C23.1869 28.0783 23.0863 27.7534 23.4299 27.4575C23.7819 27.1544 24.0832 27.3537 24.372 27.581C24.4802 27.6662 24.5823 27.7594 24.6866 27.8495C25.9972 28.981 27.3134 30.106 28.6159 31.2467C29.4288 31.9586 30.5083 31.4878 30.8021 30.7105C31.0189 30.1369 30.8632 29.5963 30.3101 29.1155C28.8992 27.8891 27.485 26.6666 26.0676 25.4478C25.8679 25.304 25.7083 25.1116 25.604 24.8887C25.6081 24.7969 25.6123 24.705 25.6165 24.6132C25.9792 24.0468 26.299 23.9939 26.8048 24.431C28.5218 25.9148 30.2374 27.4002 31.9517 28.8871C32.2307 29.1284 32.5146 29.3604 32.9061 29.4007C33.2201 29.444 33.5397 29.3849 33.8175 29.2323C34.0953 29.0797 34.3165 28.8416 34.4484 28.5533C34.7269 27.9617 34.5778 27.2809 34.0349 26.8081C32.4274 25.4084 30.8159 24.0132 29.2004 22.6227C28.9952 22.4619 28.8018 22.2867 28.6215 22.0983C28.3871 21.8273 28.3393 21.5143 28.5959 21.2243C28.8446 20.9432 29.1386 20.9826 29.4245 21.1681C29.5499 21.2563 29.6692 21.353 29.7814 21.4575C31.7298 23.1427 33.6782 24.8279 35.6266 26.5131C36.3448 27.1324 37.2696 27.0885 37.8376 26.4238C38.4174 25.7452 38.3221 24.8677 37.5869 24.2301C34.8881 21.8893 32.1873 19.5508 29.4846 17.2145C28.1392 16.053 26.7827 14.9041 25.4312 13.7495ZM14.293 6.23696C14.2991 6.07756 14.2566 5.92008 14.1711 5.78542C14.0856 5.65076 13.9612 5.54528 13.8143 5.48299C12.5072 4.80958 11.205 4.12663 9.89495 3.45904C9.39498 3.20426 9.01117 3.33483 8.75071 3.83756C6.61536 7.95917 4.48307 12.0824 2.35383 16.2071C2.06983 16.7575 2.19849 17.1306 2.75208 17.4179C4.0167 18.0742 5.28338 18.7264 6.55214 19.3747C7.13782 19.674 7.47485 19.5601 7.78264 18.9653C9.90185 14.87 12.0203 10.7742 14.1379 6.67807C14.2273 6.54714 14.2808 6.39504 14.293 6.23696ZM43.5746 3.68385C43.5003 3.70181 43.3639 3.72487 43.2341 3.76764C41.8812 4.21335 40.5291 4.66131 39.1777 5.11152C38.5664 5.31615 38.403 5.65819 38.6108 6.28561C40.0554 10.6478 41.5013 15.0095 42.9486 19.3708C43.1727 20.046 43.4932 20.1999 44.1793 19.9725C45.4296 19.5579 46.6781 19.1378 47.9296 18.7268C48.8469 18.4255 48.9769 18.1864 48.6753 17.2753C47.8136 14.6724 46.9503 12.07 46.0854 9.46822C45.5213 7.76739 44.9583 6.06617 44.3965 4.36458C44.2721 3.9859 44.0816 3.69864 43.5746 3.68385ZM18.8127 23.4213C18.8156 23.1745 18.7413 22.933 18.6001 22.7305C18.4589 22.528 18.2579 22.3748 18.0253 22.2923C17.5408 22.105 17.0377 22.2424 16.6731 22.6905C15.9098 23.6288 15.153 24.5723 14.4025 25.5209C13.9431 26.1044 14.0164 26.7963 14.5576 27.2331C15.0827 27.6571 15.8053 27.5716 16.2654 27.0091C17.0216 26.0848 17.7643 25.1495 18.5137 24.2196C18.7091 24 18.8158 23.7153 18.8127 23.4213ZM16.8636 28.6085C16.8595 28.8549 16.9317 29.0965 17.0705 29.3002C17.2092 29.5039 17.4076 29.6596 17.6384 29.746C17.8668 29.8402 18.1197 29.8576 18.3589 29.7955C18.5981 29.7334 18.8106 29.5952 18.9644 29.4017C19.5672 28.6906 20.159 27.9699 20.7465 27.246C21.2339 26.6455 21.1949 25.9379 20.6645 25.4883C20.1145 25.0222 19.4034 25.1148 18.8939 25.7282C18.3176 26.4219 17.7519 27.1242 17.1745 27.8169C16.9802 28.0355 16.87 28.3161 16.8636 28.6085ZM13.7594 21.2939C13.3225 21.2924 13.0669 21.4313 12.861 21.6849C12.5529 22.0645 12.2359 22.4368 11.9231 22.8125C11.4873 23.3361 11.541 23.9371 12.0629 24.3825C12.6061 24.8459 13.2556 24.8319 13.6908 24.3365C14.0034 23.9807 14.2942 23.6057 14.6103 23.2532C14.9388 22.8868 15.0603 22.4881 14.8276 22.0363C14.7332 21.8276 14.5841 21.6483 14.396 21.5176C14.2079 21.3869 13.9879 21.3096 13.7594 21.2939ZM19.7032 30.6795C19.7088 30.9391 19.7917 31.1912 19.9412 31.4035C20.0907 31.6158 20.3001 31.7787 20.5427 31.8714C21.0411 32.0622 21.4114 31.9532 21.7941 31.5008C21.9323 31.3376 22.0676 31.1719 22.2043 31.0074C22.6822 30.4326 22.6387 29.8308 22.0858 29.3702C21.5065 28.8876 20.9369 28.9313 20.4475 29.4994C20.268 29.7077 20.0989 29.9251 19.9182 30.1323C19.7796 30.2807 19.7027 30.4764 19.7032 30.6795ZM2.31687 17.4512C2.30892 17.4774 2.29026 17.5059 2.2971 17.5253C2.30473 17.5471 2.33553 17.5607 2.35625 17.5779C2.36387 17.5531 2.38269 17.5247 2.37609 17.5046C2.36896 17.4829 2.33808 17.469 2.31687 17.4512Z"/>
</mask>
<path d="M35.6562 28.322C35.6095 28.6838 35.4855 29.0312 35.2925 29.3407C35.0995 29.6503 34.8422 29.9146 34.5379 30.1157C34.2336 30.3169 33.8896 30.4501 33.5293 30.5065C33.1689 30.5628 32.8006 30.5408 32.4495 30.442C32.129 30.3534 32.0222 30.3636 31.9532 30.7372C31.6511 32.374 29.8213 33.2186 28.3404 32.413C28.0381 32.2485 27.9775 32.2616 27.8874 32.6107C27.7834 33.0215 27.5756 33.3987 27.2841 33.7062C26.9926 34.0137 26.627 34.2412 26.2224 34.367C25.8177 34.4928 25.3876 34.5126 24.9731 34.4246C24.5586 34.3366 24.1737 34.1436 23.8551 33.8642C23.4337 33.5076 23.0168 33.1457 22.6043 32.7786C22.454 32.6446 22.3363 32.5703 22.132 32.7147C20.8765 33.6022 19.0315 32.76 18.6508 31.2384C18.5845 30.9738 18.5158 30.9118 18.2365 30.9327C17.6409 30.9817 17.0497 30.7964 16.5888 30.4161C16.1278 30.0358 15.8334 29.4906 15.7684 28.8966C15.7409 28.6698 15.7035 28.5942 15.4489 28.5998C14.0018 28.6316 12.9894 27.6465 13.0021 26.2181C13.0046 25.93 12.9514 25.8348 12.6437 25.8047C12.2842 25.7731 11.9372 25.6576 11.6304 25.4676C11.3236 25.2776 11.0656 25.0182 10.8771 24.7105C10.6886 24.4027 10.575 24.055 10.5452 23.6953C10.5154 23.3357 10.5703 22.974 10.7056 22.6394C10.748 22.5612 10.7628 22.471 10.7475 22.3833C10.7322 22.2956 10.6878 22.2157 10.6214 22.1564C10.1618 21.6611 9.77683 21.1015 9.47866 20.4951C9.31891 20.1581 8.97423 20.065 8.67252 19.9241C8.52539 19.8555 8.46147 20.0074 8.37451 20.0847C7.65417 20.7244 6.9437 20.8274 6.09161 20.3924C4.79503 19.7305 3.49995 19.0654 2.2118 18.3873C1.12619 17.8158 0.796176 16.802 1.35721 15.7125C3.48342 11.5836 5.6169 7.45847 7.75764 3.33708C8.332 2.23161 9.35624 1.92973 10.4729 2.50285C11.7409 3.15368 13.0074 3.80765 14.2722 4.46477C15.158 4.92469 15.5111 5.58578 15.3693 6.57585C15.3399 6.78149 15.3724 6.8746 15.5519 6.96618C16.139 7.26569 16.7171 7.58278 17.3005 7.88975C17.5801 8.0369 17.8895 8.04213 18.1953 8.06916C19.3461 8.17093 20.4946 8.0324 21.6442 8.04425C21.7974 8.03275 21.9402 7.96303 22.0435 7.84941C22.4345 7.52825 22.8324 7.21504 23.2143 6.88345C24.3161 5.92693 25.595 5.64626 27.0251 5.77623C29.1522 5.96956 31.2372 6.40188 33.3307 6.79215C33.7824 6.87637 34.2401 6.92834 34.6921 7.01144C35.6372 7.18519 36.4655 6.78382 37.3188 6.49815C37.4871 6.44183 37.4458 6.33217 37.4341 6.20539C37.3306 5.08187 37.7754 4.4078 38.8534 4.04881C40.2194 3.59392 41.5859 3.14072 42.9529 2.68921C44.0551 2.32489 45.0428 2.79886 45.4088 3.89789C46.8896 8.34564 48.3641 12.7955 49.832 17.2476C50.1839 18.315 49.7175 19.2827 48.6649 19.6482C47.2178 20.1507 45.7618 20.6283 44.3033 21.0968C43.4827 21.3605 42.7575 21.1282 42.2282 20.4213C42.0586 20.1949 41.9291 20.2078 41.7463 20.3341C41.6143 20.4118 41.4962 20.511 41.3969 20.6277C40.6492 21.6703 39.6452 22.4234 38.5916 23.1174C38.351 23.2759 38.3161 23.3535 38.5414 23.5786C38.9669 23.9849 39.2405 24.5246 39.3168 25.1079C39.3932 25.6913 39.2675 26.2832 38.9609 26.7853C38.6581 27.2887 38.1989 27.6792 37.6534 27.897C37.1079 28.1148 36.5061 28.148 35.9399 27.9915C35.8983 27.9717 35.8604 27.9449 35.8277 27.9124C35.5246 27.9459 35.6834 28.1729 35.6562 28.322ZM26.0559 12.7452L26.3469 13.0193C26.4612 13.2314 26.6874 13.3177 26.8581 13.4655C30.2789 16.4264 33.7027 19.3838 37.1297 22.3376C37.2731 22.4614 37.3922 22.579 37.6068 22.4368C38.6183 21.7671 39.6395 21.1103 40.3721 20.1116C40.6119 19.7516 40.9491 19.4672 41.3443 19.2917C41.6487 19.1705 41.6666 19.0268 41.5706 18.7394C40.3666 15.136 39.1729 11.5292 37.9895 7.9189C37.878 7.57821 37.7559 7.50356 37.4197 7.6374C36.5034 8.00226 35.5671 8.29018 34.557 8.11691C33.7719 7.98222 32.9831 7.86636 32.2016 7.71336C30.3961 7.35989 28.5892 7.0253 26.7519 6.87432C25.7787 6.79435 24.8902 6.96978 24.116 7.59117C22.6084 8.80117 21.1423 10.0596 19.7179 11.3666C19.4817 11.5745 19.2981 11.8355 19.1822 12.128C19.0662 12.4206 19.0212 12.7364 19.0508 13.0497C19.1363 14.6881 19.2486 16.3273 19.0812 17.9685C19.0284 18.486 19.1662 18.6344 19.6838 18.638C20.4925 18.6436 21.0297 18.1546 21.4521 17.5535C22.0542 16.7132 22.4118 15.7226 22.4853 14.6915C22.5579 13.6527 23.0071 12.8477 23.9305 12.3341C24.5646 11.9813 25.1644 12.0521 25.7294 12.4948C25.8373 12.5794 25.947 12.6618 26.0559 12.7452ZM25.4312 13.7495C24.8253 13.1046 24.6773 13.0838 24.1419 13.5677C23.723 13.8848 23.6433 14.3446 23.5907 14.827C23.4231 16.362 22.9128 17.7535 21.7861 18.8539C21.1341 19.4906 20.3549 19.8513 19.4132 19.7375C18.5841 19.6372 17.8231 19.1061 17.9541 17.9985C18.1272 16.7344 18.1323 15.453 17.9692 14.1876C17.6838 12.2619 18.3043 10.7976 19.8883 9.70316C20.0487 9.59236 20.2435 9.47896 20.3131 9.22711C19.7259 9.22711 19.1755 9.23267 18.6252 9.22582C17.7712 9.2152 16.9417 9.10585 16.2268 8.5771C16.3639 8.39111 16.0167 8.62273 16.1953 8.5C15.885 8.34042 16.2194 8.39843 15.941 8.41424C15.6544 8.27066 15.3589 8.14221 15.0841 7.97887C14.8506 7.84013 14.7508 7.90927 14.6355 8.13324C12.8468 11.6071 11.0518 15.0776 9.2504 18.5449C9.12294 18.7902 9.13128 18.9154 9.40583 19.0258C9.67736 19.1337 9.92411 19.2957 10.1311 19.5019C10.338 19.7081 10.5009 19.9543 10.6098 20.2255C10.7749 20.607 11.0659 20.913 11.3097 21.247C11.4866 21.4894 11.6121 21.4859 11.7882 21.2429C12.0876 20.8297 12.4364 20.4691 12.9412 20.2955C14.0087 19.9283 15.1926 20.4094 15.7923 21.4786C15.9053 21.6802 15.9511 21.7909 16.2043 21.5974C16.9994 20.9896 17.875 20.9188 18.7457 21.4078C19.6166 21.8969 20.0017 22.6786 19.9125 23.6777C19.892 23.9071 19.8675 24.045 20.1861 24.1092C21.9903 24.4727 22.7085 26.1023 21.7879 27.7129C21.6829 27.8966 21.6688 27.9509 21.8864 28.0243C22.1562 28.1295 22.4201 28.2492 22.6769 28.383C23.812 29.4982 23.9346 30.2029 23.201 31.5457C23.1049 31.7217 23.1764 31.7927 23.2856 31.887C23.7265 32.2681 24.1578 32.6609 24.6094 33.0289C24.8849 33.26 25.2408 33.3724 25.5991 33.3413C25.9574 33.3102 26.2887 33.1382 26.5203 32.8631C26.7519 32.5879 26.8648 32.2321 26.8343 31.8738C26.8038 31.5154 26.6324 31.1838 26.3576 30.9518C25.3778 30.0934 24.3848 29.2501 23.3974 28.4005C23.1869 28.0783 23.0863 27.7534 23.4299 27.4575C23.7819 27.1544 24.0832 27.3537 24.372 27.581C24.4802 27.6662 24.5823 27.7594 24.6866 27.8495C25.9972 28.981 27.3134 30.106 28.6159 31.2467C29.4288 31.9586 30.5083 31.4878 30.8021 30.7105C31.0189 30.1369 30.8632 29.5963 30.3101 29.1155C28.8992 27.8891 27.485 26.6666 26.0676 25.4478C25.8679 25.304 25.7083 25.1116 25.604 24.8887C25.6081 24.7969 25.6123 24.705 25.6165 24.6132C25.9792 24.0468 26.299 23.9939 26.8048 24.431C28.5218 25.9148 30.2374 27.4002 31.9517 28.8871C32.2307 29.1284 32.5146 29.3604 32.9061 29.4007C33.2201 29.444 33.5397 29.3849 33.8175 29.2323C34.0953 29.0797 34.3165 28.8416 34.4484 28.5533C34.7269 27.9617 34.5778 27.2809 34.0349 26.8081C32.4274 25.4084 30.8159 24.0132 29.2004 22.6227C28.9952 22.4619 28.8018 22.2867 28.6215 22.0983C28.3871 21.8273 28.3393 21.5143 28.5959 21.2243C28.8446 20.9432 29.1386 20.9826 29.4245 21.1681C29.5499 21.2563 29.6692 21.353 29.7814 21.4575C31.7298 23.1427 33.6782 24.8279 35.6266 26.5131C36.3448 27.1324 37.2696 27.0885 37.8376 26.4238C38.4174 25.7452 38.3221 24.8677 37.5869 24.2301C34.8881 21.8893 32.1873 19.5508 29.4846 17.2145C28.1392 16.053 26.7827 14.9041 25.4312 13.7495ZM14.293 6.23696C14.2991 6.07756 14.2566 5.92008 14.1711 5.78542C14.0856 5.65076 13.9612 5.54528 13.8143 5.48299C12.5072 4.80958 11.205 4.12663 9.89495 3.45904C9.39498 3.20426 9.01117 3.33483 8.75071 3.83756C6.61536 7.95917 4.48307 12.0824 2.35383 16.2071C2.06983 16.7575 2.19849 17.1306 2.75208 17.4179C4.0167 18.0742 5.28338 18.7264 6.55214 19.3747C7.13782 19.674 7.47485 19.5601 7.78264 18.9653C9.90185 14.87 12.0203 10.7742 14.1379 6.67807C14.2273 6.54714 14.2808 6.39504 14.293 6.23696ZM43.5746 3.68385C43.5003 3.70181 43.3639 3.72487 43.2341 3.76764C41.8812 4.21335 40.5291 4.66131 39.1777 5.11152C38.5664 5.31615 38.403 5.65819 38.6108 6.28561C40.0554 10.6478 41.5013 15.0095 42.9486 19.3708C43.1727 20.046 43.4932 20.1999 44.1793 19.9725C45.4296 19.5579 46.6781 19.1378 47.9296 18.7268C48.8469 18.4255 48.9769 18.1864 48.6753 17.2753C47.8136 14.6724 46.9503 12.07 46.0854 9.46822C45.5213 7.76739 44.9583 6.06617 44.3965 4.36458C44.2721 3.9859 44.0816 3.69864 43.5746 3.68385ZM18.8127 23.4213C18.8156 23.1745 18.7413 22.933 18.6001 22.7305C18.4589 22.528 18.2579 22.3748 18.0253 22.2923C17.5408 22.105 17.0377 22.2424 16.6731 22.6905C15.9098 23.6288 15.153 24.5723 14.4025 25.5209C13.9431 26.1044 14.0164 26.7963 14.5576 27.2331C15.0827 27.6571 15.8053 27.5716 16.2654 27.0091C17.0216 26.0848 17.7643 25.1495 18.5137 24.2196C18.7091 24 18.8158 23.7153 18.8127 23.4213ZM16.8636 28.6085C16.8595 28.8549 16.9317 29.0965 17.0705 29.3002C17.2092 29.5039 17.4076 29.6596 17.6384 29.746C17.8668 29.8402 18.1197 29.8576 18.3589 29.7955C18.5981 29.7334 18.8106 29.5952 18.9644 29.4017C19.5672 28.6906 20.159 27.9699 20.7465 27.246C21.2339 26.6455 21.1949 25.9379 20.6645 25.4883C20.1145 25.0222 19.4034 25.1148 18.8939 25.7282C18.3176 26.4219 17.7519 27.1242 17.1745 27.8169C16.9802 28.0355 16.87 28.3161 16.8636 28.6085ZM13.7594 21.2939C13.3225 21.2924 13.0669 21.4313 12.861 21.6849C12.5529 22.0645 12.2359 22.4368 11.9231 22.8125C11.4873 23.3361 11.541 23.9371 12.0629 24.3825C12.6061 24.8459 13.2556 24.8319 13.6908 24.3365C14.0034 23.9807 14.2942 23.6057 14.6103 23.2532C14.9388 22.8868 15.0603 22.4881 14.8276 22.0363C14.7332 21.8276 14.5841 21.6483 14.396 21.5176C14.2079 21.3869 13.9879 21.3096 13.7594 21.2939ZM19.7032 30.6795C19.7088 30.9391 19.7917 31.1912 19.9412 31.4035C20.0907 31.6158 20.3001 31.7787 20.5427 31.8714C21.0411 32.0622 21.4114 31.9532 21.7941 31.5008C21.9323 31.3376 22.0676 31.1719 22.2043 31.0074C22.6822 30.4326 22.6387 29.8308 22.0858 29.3702C21.5065 28.8876 20.9369 28.9313 20.4475 29.4994C20.268 29.7077 20.0989 29.9251 19.9182 30.1323C19.7796 30.2807 19.7027 30.4764 19.7032 30.6795ZM2.31687 17.4512C2.30892 17.4774 2.29026 17.5059 2.2971 17.5253C2.30473 17.5471 2.33553 17.5607 2.35625 17.5779C2.36387 17.5531 2.38269 17.5247 2.37609 17.5046C2.36896 17.4829 2.33808 17.469 2.31687 17.4512Z" fill="#936BB2"/>
<path d="M35.6562 28.322C35.6095 28.6838 35.4855 29.0312 35.2925 29.3407C35.0995 29.6503 34.8422 29.9146 34.5379 30.1157C34.2336 30.3169 33.8896 30.4501 33.5293 30.5065C33.1689 30.5628 32.8006 30.5408 32.4495 30.442C32.129 30.3534 32.0222 30.3636 31.9532 30.7372C31.6511 32.374 29.8213 33.2186 28.3404 32.413C28.0381 32.2485 27.9775 32.2616 27.8874 32.6107C27.7834 33.0215 27.5756 33.3987 27.2841 33.7062C26.9926 34.0137 26.627 34.2412 26.2224 34.367C25.8177 34.4928 25.3876 34.5126 24.9731 34.4246C24.5586 34.3366 24.1737 34.1436 23.8551 33.8642C23.4337 33.5076 23.0168 33.1457 22.6043 32.7786C22.454 32.6446 22.3363 32.5703 22.132 32.7147C20.8765 33.6022 19.0315 32.76 18.6508 31.2384C18.5845 30.9738 18.5158 30.9118 18.2365 30.9327C17.6409 30.9817 17.0497 30.7964 16.5888 30.4161C16.1278 30.0358 15.8334 29.4906 15.7684 28.8966C15.7409 28.6698 15.7035 28.5942 15.4489 28.5998C14.0018 28.6316 12.9894 27.6465 13.0021 26.2181C13.0046 25.93 12.9514 25.8348 12.6437 25.8047C12.2842 25.7731 11.9372 25.6576 11.6304 25.4676C11.3236 25.2776 11.0656 25.0182 10.8771 24.7105C10.6886 24.4027 10.575 24.055 10.5452 23.6953C10.5154 23.3357 10.5703 22.974 10.7056 22.6394C10.748 22.5612 10.7628 22.471 10.7475 22.3833C10.7322 22.2956 10.6878 22.2157 10.6214 22.1564C10.1618 21.6611 9.77683 21.1015 9.47866 20.4951C9.31891 20.1581 8.97423 20.065 8.67252 19.9241C8.52539 19.8555 8.46147 20.0074 8.37451 20.0847C7.65417 20.7244 6.9437 20.8274 6.09161 20.3924C4.79503 19.7305 3.49995 19.0654 2.2118 18.3873C1.12619 17.8158 0.796176 16.802 1.35721 15.7125C3.48342 11.5836 5.6169 7.45847 7.75764 3.33708C8.332 2.23161 9.35624 1.92973 10.4729 2.50285C11.7409 3.15368 13.0074 3.80765 14.2722 4.46477C15.158 4.92469 15.5111 5.58578 15.3693 6.57585C15.3399 6.78149 15.3724 6.8746 15.5519 6.96618C16.139 7.26569 16.7171 7.58278 17.3005 7.88975C17.5801 8.0369 17.8895 8.04213 18.1953 8.06916C19.3461 8.17093 20.4946 8.0324 21.6442 8.04425C21.7974 8.03275 21.9402 7.96303 22.0435 7.84941C22.4345 7.52825 22.8324 7.21504 23.2143 6.88345C24.3161 5.92693 25.595 5.64626 27.0251 5.77623C29.1522 5.96956 31.2372 6.40188 33.3307 6.79215C33.7824 6.87637 34.2401 6.92834 34.6921 7.01144C35.6372 7.18519 36.4655 6.78382 37.3188 6.49815C37.4871 6.44183 37.4458 6.33217 37.4341 6.20539C37.3306 5.08187 37.7754 4.4078 38.8534 4.04881C40.2194 3.59392 41.5859 3.14072 42.9529 2.68921C44.0551 2.32489 45.0428 2.79886 45.4088 3.89789C46.8896 8.34564 48.3641 12.7955 49.832 17.2476C50.1839 18.315 49.7175 19.2827 48.6649 19.6482C47.2178 20.1507 45.7618 20.6283 44.3033 21.0968C43.4827 21.3605 42.7575 21.1282 42.2282 20.4213C42.0586 20.1949 41.9291 20.2078 41.7463 20.3341C41.6143 20.4118 41.4962 20.511 41.3969 20.6277C40.6492 21.6703 39.6452 22.4234 38.5916 23.1174C38.351 23.2759 38.3161 23.3535 38.5414 23.5786C38.9669 23.9849 39.2405 24.5246 39.3168 25.1079C39.3932 25.6913 39.2675 26.2832 38.9609 26.7853C38.6581 27.2887 38.1989 27.6792 37.6534 27.897C37.1079 28.1148 36.5061 28.148 35.9399 27.9915C35.8983 27.9717 35.8604 27.9449 35.8277 27.9124C35.5246 27.9459 35.6834 28.1729 35.6562 28.322ZM26.0559 12.7452L26.3469 13.0193C26.4612 13.2314 26.6874 13.3177 26.8581 13.4655C30.2789 16.4264 33.7027 19.3838 37.1297 22.3376C37.2731 22.4614 37.3922 22.579 37.6068 22.4368C38.6183 21.7671 39.6395 21.1103 40.3721 20.1116C40.6119 19.7516 40.9491 19.4672 41.3443 19.2917C41.6487 19.1705 41.6666 19.0268 41.5706 18.7394C40.3666 15.136 39.1729 11.5292 37.9895 7.9189C37.878 7.57821 37.7559 7.50356 37.4197 7.6374C36.5034 8.00226 35.5671 8.29018 34.557 8.11691C33.7719 7.98222 32.9831 7.86636 32.2016 7.71336C30.3961 7.35989 28.5892 7.0253 26.7519 6.87432C25.7787 6.79435 24.8902 6.96978 24.116 7.59117C22.6084 8.80117 21.1423 10.0596 19.7179 11.3666C19.4817 11.5745 19.2981 11.8355 19.1822 12.128C19.0662 12.4206 19.0212 12.7364 19.0508 13.0497C19.1363 14.6881 19.2486 16.3273 19.0812 17.9685C19.0284 18.486 19.1662 18.6344 19.6838 18.638C20.4925 18.6436 21.0297 18.1546 21.4521 17.5535C22.0542 16.7132 22.4118 15.7226 22.4853 14.6915C22.5579 13.6527 23.0071 12.8477 23.9305 12.3341C24.5646 11.9813 25.1644 12.0521 25.7294 12.4948C25.8373 12.5794 25.947 12.6618 26.0559 12.7452ZM25.4312 13.7495C24.8253 13.1046 24.6773 13.0838 24.1419 13.5677C23.723 13.8848 23.6433 14.3446 23.5907 14.827C23.4231 16.362 22.9128 17.7535 21.7861 18.8539C21.1341 19.4906 20.3549 19.8513 19.4132 19.7375C18.5841 19.6372 17.8231 19.1061 17.9541 17.9985C18.1272 16.7344 18.1323 15.453 17.9692 14.1876C17.6838 12.2619 18.3043 10.7976 19.8883 9.70316C20.0487 9.59236 20.2435 9.47896 20.3131 9.22711C19.7259 9.22711 19.1755 9.23267 18.6252 9.22582C17.7712 9.2152 16.9417 9.10585 16.2268 8.5771C16.3639 8.39111 16.0167 8.62273 16.1953 8.5C15.885 8.34042 16.2194 8.39843 15.941 8.41424C15.6544 8.27066 15.3589 8.14221 15.0841 7.97887C14.8506 7.84013 14.7508 7.90927 14.6355 8.13324C12.8468 11.6071 11.0518 15.0776 9.2504 18.5449C9.12294 18.7902 9.13128 18.9154 9.40583 19.0258C9.67736 19.1337 9.92411 19.2957 10.1311 19.5019C10.338 19.7081 10.5009 19.9543 10.6098 20.2255C10.7749 20.607 11.0659 20.913 11.3097 21.247C11.4866 21.4894 11.6121 21.4859 11.7882 21.2429C12.0876 20.8297 12.4364 20.4691 12.9412 20.2955C14.0087 19.9283 15.1926 20.4094 15.7923 21.4786C15.9053 21.6802 15.9511 21.7909 16.2043 21.5974C16.9994 20.9896 17.875 20.9188 18.7457 21.4078C19.6166 21.8969 20.0017 22.6786 19.9125 23.6777C19.892 23.9071 19.8675 24.045 20.1861 24.1092C21.9903 24.4727 22.7085 26.1023 21.7879 27.7129C21.6829 27.8966 21.6688 27.9509 21.8864 28.0243C22.1562 28.1295 22.4201 28.2492 22.6769 28.383C23.812 29.4982 23.9346 30.2029 23.201 31.5457C23.1049 31.7217 23.1764 31.7927 23.2856 31.887C23.7265 32.2681 24.1578 32.6609 24.6094 33.0289C24.8849 33.26 25.2408 33.3724 25.5991 33.3413C25.9574 33.3102 26.2887 33.1382 26.5203 32.8631C26.7519 32.5879 26.8648 32.2321 26.8343 31.8738C26.8038 31.5154 26.6324 31.1838 26.3576 30.9518C25.3778 30.0934 24.3848 29.2501 23.3974 28.4005C23.1869 28.0783 23.0863 27.7534 23.4299 27.4575C23.7819 27.1544 24.0832 27.3537 24.372 27.581C24.4802 27.6662 24.5823 27.7594 24.6866 27.8495C25.9972 28.981 27.3134 30.106 28.6159 31.2467C29.4288 31.9586 30.5083 31.4878 30.8021 30.7105C31.0189 30.1369 30.8632 29.5963 30.3101 29.1155C28.8992 27.8891 27.485 26.6666 26.0676 25.4478C25.8679 25.304 25.7083 25.1116 25.604 24.8887C25.6081 24.7969 25.6123 24.705 25.6165 24.6132C25.9792 24.0468 26.299 23.9939 26.8048 24.431C28.5218 25.9148 30.2374 27.4002 31.9517 28.8871C32.2307 29.1284 32.5146 29.3604 32.9061 29.4007C33.2201 29.444 33.5397 29.3849 33.8175 29.2323C34.0953 29.0797 34.3165 28.8416 34.4484 28.5533C34.7269 27.9617 34.5778 27.2809 34.0349 26.8081C32.4274 25.4084 30.8159 24.0132 29.2004 22.6227C28.9952 22.4619 28.8018 22.2867 28.6215 22.0983C28.3871 21.8273 28.3393 21.5143 28.5959 21.2243C28.8446 20.9432 29.1386 20.9826 29.4245 21.1681C29.5499 21.2563 29.6692 21.353 29.7814 21.4575C31.7298 23.1427 33.6782 24.8279 35.6266 26.5131C36.3448 27.1324 37.2696 27.0885 37.8376 26.4238C38.4174 25.7452 38.3221 24.8677 37.5869 24.2301C34.8881 21.8893 32.1873 19.5508 29.4846 17.2145C28.1392 16.053 26.7827 14.9041 25.4312 13.7495ZM14.293 6.23696C14.2991 6.07756 14.2566 5.92008 14.1711 5.78542C14.0856 5.65076 13.9612 5.54528 13.8143 5.48299C12.5072 4.80958 11.205 4.12663 9.89495 3.45904C9.39498 3.20426 9.01117 3.33483 8.75071 3.83756C6.61536 7.95917 4.48307 12.0824 2.35383 16.2071C2.06983 16.7575 2.19849 17.1306 2.75208 17.4179C4.0167 18.0742 5.28338 18.7264 6.55214 19.3747C7.13782 19.674 7.47485 19.5601 7.78264 18.9653C9.90185 14.87 12.0203 10.7742 14.1379 6.67807C14.2273 6.54714 14.2808 6.39504 14.293 6.23696ZM43.5746 3.68385C43.5003 3.70181 43.3639 3.72487 43.2341 3.76764C41.8812 4.21335 40.5291 4.66131 39.1777 5.11152C38.5664 5.31615 38.403 5.65819 38.6108 6.28561C40.0554 10.6478 41.5013 15.0095 42.9486 19.3708C43.1727 20.046 43.4932 20.1999 44.1793 19.9725C45.4296 19.5579 46.6781 19.1378 47.9296 18.7268C48.8469 18.4255 48.9769 18.1864 48.6753 17.2753C47.8136 14.6724 46.9503 12.07 46.0854 9.46822C45.5213 7.76739 44.9583 6.06617 44.3965 4.36458C44.2721 3.9859 44.0816 3.69864 43.5746 3.68385ZM18.8127 23.4213C18.8156 23.1745 18.7413 22.933 18.6001 22.7305C18.4589 22.528 18.2579 22.3748 18.0253 22.2923C17.5408 22.105 17.0377 22.2424 16.6731 22.6905C15.9098 23.6288 15.153 24.5723 14.4025 25.5209C13.9431 26.1044 14.0164 26.7963 14.5576 27.2331C15.0827 27.6571 15.8053 27.5716 16.2654 27.0091C17.0216 26.0848 17.7643 25.1495 18.5137 24.2196C18.7091 24 18.8158 23.7153 18.8127 23.4213ZM16.8636 28.6085C16.8595 28.8549 16.9317 29.0965 17.0705 29.3002C17.2092 29.5039 17.4076 29.6596 17.6384 29.746C17.8668 29.8402 18.1197 29.8576 18.3589 29.7955C18.5981 29.7334 18.8106 29.5952 18.9644 29.4017C19.5672 28.6906 20.159 27.9699 20.7465 27.246C21.2339 26.6455 21.1949 25.9379 20.6645 25.4883C20.1145 25.0222 19.4034 25.1148 18.8939 25.7282C18.3176 26.4219 17.7519 27.1242 17.1745 27.8169C16.9802 28.0355 16.87 28.3161 16.8636 28.6085ZM13.7594 21.2939C13.3225 21.2924 13.0669 21.4313 12.861 21.6849C12.5529 22.0645 12.2359 22.4368 11.9231 22.8125C11.4873 23.3361 11.541 23.9371 12.0629 24.3825C12.6061 24.8459 13.2556 24.8319 13.6908 24.3365C14.0034 23.9807 14.2942 23.6057 14.6103 23.2532C14.9388 22.8868 15.0603 22.4881 14.8276 22.0363C14.7332 21.8276 14.5841 21.6483 14.396 21.5176C14.2079 21.3869 13.9879 21.3096 13.7594 21.2939ZM19.7032 30.6795C19.7088 30.9391 19.7917 31.1912 19.9412 31.4035C20.0907 31.6158 20.3001 31.7787 20.5427 31.8714C21.0411 32.0622 21.4114 31.9532 21.7941 31.5008C21.9323 31.3376 22.0676 31.1719 22.2043 31.0074C22.6822 30.4326 22.6387 29.8308 22.0858 29.3702C21.5065 28.8876 20.9369 28.9313 20.4475 29.4994C20.268 29.7077 20.0989 29.9251 19.9182 30.1323C19.7796 30.2807 19.7027 30.4764 19.7032 30.6795ZM2.31687 17.4512C2.30892 17.4774 2.29026 17.5059 2.2971 17.5253C2.30473 17.5471 2.33553 17.5607 2.35625 17.5779C2.36387 17.5531 2.38269 17.5247 2.37609 17.5046C2.36896 17.4829 2.33808 17.469 2.31687 17.4512Z" stroke="#936BB2" stroke-width="1.4" mask="url(#path-1-outside-1_6721_5070)"/>
</g>
<defs>
<clipPath id="clip0_6721_5070">
<rect width="50" height="35.4858" fill="white" transform="translate(0.695312 0.000976562)"/>
</clipPath>
</defs>
</svg>
