<svg width="50" height="50" viewBox="0 0 50 50" fill="none" xmlns="http://www.w3.org/2000/svg">
<g clip-path="url(#clip0_6721_5127)">
<path d="M36.1983 40.2137L34.4729 36.8273L37.6918 26.9204C39.6682 20.8376 38.0733 14.6897 32.8443 11.5012L33.2821 10.1538C33.8165 8.50929 32.9203 6.75044 31.2757 6.2161C29.6312 5.68175 27.8724 6.57793 27.338 8.22247L26.9002 9.5698C20.7759 9.06947 15.8982 13.0924 13.9154 19.195L10.6964 29.1019L7.30998 30.8273C5.65614 31.67 5.83265 34.0932 7.59607 34.6661L33.6907 43.1448C35.4739 43.7242 37.041 41.8676 36.1983 40.2137ZM29.8663 37.5211L14.0154 32.3708L17.8781 20.4826C19.4747 15.5688 23.767 12.5385 28.7006 14.1416C33.6342 15.7446 35.3256 20.7191 33.729 25.6329L29.8663 37.5211ZM18.7219 44.8528C20.9014 45.5609 23.2641 44.3571 23.9722 42.1776L16.0468 39.6025C15.3386 41.782 16.5226 44.1382 18.7219 44.8528Z" fill="#936BB2"/>
</g>
<defs>
<clipPath id="clip0_6721_5127">
<rect width="50" height="50" fill="white"/>
</clipPath>
</defs>
</svg>
