<svg width="50" height="50" viewBox="0 0 50 50" fill="none" xmlns="http://www.w3.org/2000/svg">
<g clip-path="url(#clip0_6721_5132)">
<path d="M24.979 4.1665C13.479 4.1665 4.1665 13.4998 4.1665 24.9998C4.1665 36.4998 13.479 45.8332 24.979 45.8332C36.4998 45.8332 45.8332 36.4998 45.8332 24.9998C45.8332 13.4998 36.4998 4.1665 24.979 4.1665ZM39.4165 16.6665H33.2707C32.604 14.0623 31.6457 11.5623 30.3957 9.24984C34.229 10.5623 37.4165 13.229 39.4165 16.6665ZM24.9998 8.4165C26.729 10.9165 28.0832 13.6873 28.979 16.6665H21.0207C21.9165 13.6873 23.2707 10.9165 24.9998 8.4165ZM8.87484 29.1665C8.5415 27.8332 8.33317 26.4373 8.33317 24.9998C8.33317 23.5623 8.5415 22.1665 8.87484 20.8332H15.9165C15.7498 22.2082 15.6248 23.5832 15.6248 24.9998C15.6248 26.4165 15.7498 27.7915 15.9165 29.1665H8.87484ZM10.5832 33.3332H16.729C17.3957 35.9373 18.354 38.4373 19.604 40.7498C15.7707 39.4373 12.5832 36.7915 10.5832 33.3332ZM16.729 16.6665H10.5832C12.5832 13.2082 15.7707 10.5623 19.604 9.24984C18.354 11.5623 17.3957 14.0623 16.729 16.6665ZM24.9998 41.5832C23.2707 39.0832 21.9165 36.3123 21.0207 33.3332H28.979C28.0832 36.3123 26.729 39.0832 24.9998 41.5832ZM29.8748 29.1665H20.1248C19.9373 27.7915 19.7915 26.4165 19.7915 24.9998C19.7915 23.5832 19.9373 22.1873 20.1248 20.8332H29.8748C30.0623 22.1873 30.2082 23.5832 30.2082 24.9998C30.2082 26.4165 30.0623 27.7915 29.8748 29.1665ZM30.3957 40.7498C31.6457 38.4373 32.604 35.9373 33.2707 33.3332H39.4165C37.4165 36.7707 34.229 39.4373 30.3957 40.7498ZM34.0832 29.1665C34.2498 27.7915 34.3748 26.4165 34.3748 24.9998C34.3748 23.5832 34.2498 22.2082 34.0832 20.8332H41.1248C41.4582 22.1665 41.6665 23.5623 41.6665 24.9998C41.6665 26.4373 41.4582 27.8332 41.1248 29.1665H34.0832Z" fill="#936BB2"/>
</g>
<defs>
<clipPath id="clip0_6721_5132">
<rect width="50" height="50" fill="white"/>
</clipPath>
</defs>
</svg>
